<?xml version="1.0" encoding="UTF-8"?><svg id="Layer_1" xmlns="http://www.w3.org/2000/svg" viewBox="0 0 187.61 161.35"><defs><style>.cls-1{fill:none;stroke-linecap:round;stroke-linejoin:round;}.cls-1,.cls-2{stroke:#e1d0ee;}.cls-3,.cls-2,.cls-4{fill:#e1d0ee;}.cls-2{stroke-miterlimit:10;}.cls-5{opacity:.4;}.cls-4{fill-rule:evenodd;}</style></defs><g class="cls-5"><g id="b"><g id="c"><g><path class="cls-3" d="M108.2,65.74c-.28,0-.58-.06-.89-.17-.41-.15-.7-.33-.73-.36-.17-.11-.25-.32-.19-.52,.01-.04,.11-.36,.32-.73,.31-.54,.71-.9,1.16-1.06,.45-.16,.98-.14,1.56,.06,.41,.14,.71,.32,.72,.33,.18,.11,.26,.33,.2,.53-.02,.06-.42,1.36-1.46,1.78h0c-.21,.09-.45,.13-.7,.13h0Zm-.77-1.12c.32,.14,.77,.27,1.12,.13h0c.35-.14,.61-.52,.77-.83-.33-.13-.78-.25-1.13-.13-.35,.12-.6,.51-.76,.83h0Z"/><path class="cls-3" d="M105.14,76.56c-.47,0-.96-.19-1.46-.56-1.47-1.11-2.71-3.72-2.91-5.37-.28-2.32,1.18-4.48,3.25-4.83,.81-.16,1.72,.02,2.51,.51l.02,.02c.34,.24,.82,.23,1.21,0,.73-.48,1.65-.67,2.47-.51,2.13,.34,3.58,2.51,3.25,4.83-.2,1.65-1.44,4.26-2.91,5.36-.59,.45-1.18,.63-1.74,.53h-.02c-.33-.07-.63-.2-.87-.38-.48-.33-1.15-.33-1.63,0-.24,.18-.54,.31-.87,.38h-.02c-.1,.02-.19,.03-.29,.03h0Zm3.86-.95c.3,.05,.64-.07,1.02-.36,1.24-.94,2.37-3.27,2.54-4.73h0c.26-1.84-.85-3.53-2.48-3.79h-.02c-.58-.12-1.25,.02-1.78,.37h0c-.7,.45-1.59,.45-2.24,0-.58-.36-1.25-.49-1.83-.38h-.02c-1.59,.26-2.7,1.96-2.48,3.79,.17,1.46,1.3,3.8,2.54,4.73,.38,.28,.72,.4,1.02,.36,.19-.04,.37-.11,.5-.21h.01c.8-.56,1.91-.56,2.71-.01h.01c.13,.11,.3,.18,.5,.22h0Z"/><path class="cls-3" d="M107.13,67.43c-.26,0-.47-.21-.47-.47,0-1.26-.6-2.45-1.59-3.19l-.2-.15c-.21-.16-.25-.45-.09-.66,.16-.21,.45-.25,.66-.09l.2,.15c1.23,.91,1.97,2.38,1.97,3.94,0,.26-.21,.47-.47,.47h0Z"/></g></g></g></g><g class="cls-5"><g id="b-2"><g id="c-2"><g><path class="cls-3" d="M134.06,64.42c-.21,.21-.21,.57,0,.82,.21,.21,.57,.21,.82,0,.21-.21,.21-.57,0-.82-.21-.21-.57-.21-.82,0Zm2.11-.41l-1.6-1.6c-.46-.41-1.18-.46-1.65,0l-11.38,11.38c-.46,.46-.46,1.18,0,1.65l1.6,1.6c.21,.21,.52,.36,.82,.36s.62-.1,.82-.36l11.38-11.38c.21-.21,.36-.52,.36-.82s-.15-.62-.36-.82Zm-.57,1.13l-11.33,11.33c-.15,.15-.41,.15-.57,0l-1.6-1.6c-.15-.15-.15-.41,0-.57l.88-.88,.52,.52c.05,.05,.15,.1,.26,.1s.21-.05,.26-.1c.15-.15,.15-.41,0-.57l-.52-.52,1.49-1.49,.52,.52c.05,.05,.15,.1,.26,.1s.21-.05,.26-.1c.15-.15,.15-.41,0-.57l-.52-.52,1.49-1.49,.52,.52c.05,.05,.15,.1,.26,.1s.21-.05,.26-.1c.15-.15,.15-.41,0-.57l-.52-.52,1.49-1.49,.52,.52c.05,.05,.15,.1,.26,.1s.21-.05,.26-.1c.15-.15,.15-.41,0-.57l-.52-.52,1.49-1.49,.52,.52c.05,.05,.15,.1,.26,.1s.21-.05,.26-.1c.15-.15,.15-.41,0-.57l-.52-.52,1.8-1.8c.05-.05,.15-.1,.26-.1s.21,.05,.26,.1l1.75,1.75c.05,.05,.1,.15,.1,.26s0,.21-.1,.31h0Z"/><path class="cls-3" d="M123.97,77.44c-.3,0-.63-.14-.86-.37l-1.6-1.6c-.48-.48-.48-1.23,0-1.71l11.38-11.38c.45-.45,1.2-.45,1.71,0l1.6,1.6c.23,.23,.37,.56,.37,.86s-.14,.63-.37,.86l-11.38,11.38c-.19,.24-.5,.37-.86,.37h0Zm9.77-15.31c-.28,0-.56,.1-.77,.31l-11.38,11.38c-.44,.44-.44,1.14,0,1.58l1.6,1.6c.21,.21,.52,.35,.79,.35,.33,0,.61-.12,.79-.34l11.38-11.39c.21-.21,.35-.52,.35-.79s-.13-.58-.35-.79l-1.6-1.6c-.23-.21-.53-.31-.81-.31h0Zm-9.74,14.5c-.12,0-.23-.05-.32-.13l-1.6-1.6c-.08-.08-.13-.2-.13-.32s.05-.23,.13-.32l.91-.91,.55,.55s.14,.09,.23,.09,.18-.04,.23-.09c.14-.14,.14-.37,0-.5l-.55-.55,1.56-1.56,.55,.55s.14,.09,.23,.09,.18-.04,.23-.09c.14-.14,.14-.37,0-.5l-.55-.55,1.56-1.56,.55,.55s.14,.09,.23,.09,.18-.04,.23-.09c.14-.14,.14-.37,0-.5l-.55-.55,1.56-1.56,.55,.55s.14,.09,.23,.09,.18-.04,.23-.09c.14-.14,.14-.37,0-.5l-.55-.55,1.56-1.56,.55,.55s.14,.09,.23,.09,.18-.04,.23-.09c.14-.14,.14-.37,0-.5l-.55-.55,1.83-1.83c.06-.06,.17-.12,.29-.12s.23,.06,.29,.12l1.75,1.75c.06,.06,.12,.17,.12,.29,0,.11,0,.22-.12,.34l-11.33,11.32c-.08,.08-.2,.13-.32,.13Zm-1-3.13l-.84,.84c-.07,.07-.1,.15-.1,.25s.04,.19,.1,.25l1.6,1.6c.07,.07,.15,.1,.25,.1s.19-.04,.25-.1l11.33-11.33c.09-.09,.09-.18,.09-.28,0-.09-.04-.18-.09-.23l-1.75-1.75s-.14-.09-.23-.09-.18,.04-.23,.09l-1.77,1.77,.48,.48c.17,.17,.17,.46,0,.63-.06,.06-.17,.12-.29,.12s-.23-.06-.29-.12l-.48-.48-1.43,1.43,.48,.48c.17,.17,.17,.46,0,.63-.06,.06-.17,.12-.29,.12s-.23-.06-.29-.12l-.48-.48-1.43,1.43,.48,.48c.17,.17,.17,.46,0,.63-.06,.06-.17,.12-.29,.12s-.23-.06-.29-.12l-.48-.48-1.43,1.43,.48,.48c.17,.17,.17,.46,0,.63-.06,.06-.17,.12-.29,.12s-.23-.06-.29-.12l-.48-.48-1.43,1.43,.48,.48c.17,.17,.17,.46,0,.63-.06,.06-.17,.12-.29,.12s-.23-.06-.29-.12l-.48-.48h0Zm11.46-8.05c-.16,0-.31-.06-.42-.17-.22-.28-.22-.67,0-.89h0c.27-.22,.66-.22,.89,0,.22,.28,.22,.67,0,.89-.14,.11-.31,.17-.46,.17h0Zm-.36-.99c-.19,.19-.19,.52,0,.76,.19,.19,.52,.18,.76,0,.19-.19,.18-.52,0-.76-.19-.19-.52-.18-.76,0h0Z"/></g></g></g></g><g class="cls-5"><g id="b-3"><g id="c-3"><path id="d" class="cls-4" d="M84.7,71.16h-6.75v3.9c0,.93-.75,1.68-1.67,1.68s-1.67-.75-1.67-1.68v-.65c-.17,.06-.36,.1-.56,.1-.93,0-1.67-.75-1.67-1.68v-1.67h-2.23v-1.12h2.23v-1.67c0-.93,.75-1.68,1.67-1.68,.2,0,.38,.03,.56,.09h0v-.65c0-.93,.75-1.68,1.67-1.68s1.67,.75,1.67,1.68v3.9h6.75v-3.9c0-.93,.75-1.68,1.67-1.68s1.67,.75,1.67,1.68v.65c.17-.06,.36-.1,.56-.1,.93,0,1.67,.75,1.67,1.68v1.67h2.23v1.12h-2.23v1.67c0,.93-.75,1.68-1.67,1.68-.2,0-.38-.03-.56-.09v.65c0,.93-.75,1.68-1.67,1.68s-1.67-.75-1.67-1.68v-3.9h0Zm3.91-3.35c-.31,0-.56,.24-.56,.56v4.47c0,.31,.26,.56,.56,.56s.56-.24,.56-.56v-4.47c0-.31-.26-.56-.56-.56h0Zm-14.57,0c-.31,0-.56,.24-.56,.56v4.47c0,.31,.26,.56,.56,.56s.56-.24,.56-.56v-4.47c0-.31-.26-.56-.56-.56h0Zm12.33-2.23c-.31,0-.56,.25-.56,.57v8.91c0,.31,.26,.57,.56,.57s.56-.25,.56-.57v-8.91c0-.31-.26-.57-.56-.57h0Zm-10.1,0c-.31,0-.56,.25-.56,.57v8.91c0,.31,.26,.57,.56,.57s.56-.25,.56-.57v-8.91c0-.31-.26-.57-.56-.57h0Z"/></g></g></g><g class="cls-5"><g id="_16-heart"><path class="cls-1" d="M15.22,65.72c-1.44-1.49-3.82-1.52-5.31-.08-.03,.03-.05,.05-.08,.08-1.44-1.49-3.82-1.52-5.31-.08-.03,.03-.05,.05-.08,.08-1.49,1.53-1.49,3.97,0,5.5l5.39,5.49,5.39-5.5c1.49-1.53,1.49-3.96,0-5.49Z"/><path class="cls-1" d="M14.17,68.48c0-.96-.78-1.73-1.73-1.73"/></g></g><g class="cls-5"><g><path class="cls-3" d="M57.66,67.01c-1.5,0-2.73,1.23-2.73,2.73s1.23,2.73,2.73,2.73,2.73-1.23,2.73-2.73-1.23-2.73-2.73-2.73Zm0,4.54c-1,0-1.82-.82-1.82-1.82s.82-1.82,1.82-1.82,1.82,.82,1.82,1.82-.82,1.82-1.82,1.82Z"/><path class="cls-3" d="M58.21,68.88c-.23,.14-.27,.41-.18,.64,.09,.05,.09,.14,.09,.23,0,.27-.18,.45-.45,.45s-.45,.18-.45,.45,.18,.45,.45,.45c.77,0,1.36-.59,1.36-1.36,0-.23-.05-.5-.18-.68-.14-.23-.41-.27-.64-.18Z"/><path class="cls-3" d="M63.39,68.88c-.64-2.68-3-4.59-5.77-4.59-3.23,0-5.86,2.64-5.86,5.86,0,2,1.05,3.86,2.68,4.95,.09,1.05,.95,1.91,2.04,1.91,.41,0,.82-.14,1.14-.36,.59,.23,1.18,.36,1.82,.36,2.77,0,5-2.23,5-5,.05-1.14-.36-2.23-1.05-3.14Zm-3.91,7.23c-.59,0-1.18-.14-1.73-.36-.05-.05-.14-.05-.18-.05-.09,0-.23,.05-.32,.14-.23,.18-.5,.32-.77,.32-.64,0-1.14-.5-1.14-1.14v-.09c0-.18-.09-.32-.23-.41-1.55-.91-2.45-2.54-2.45-4.27,0-2.82,2.23-5.04,4.95-5.04,2.36,0,4.41,1.68,4.86,3.95,0,.09,.05,.14,.09,.18,.64,.73,.95,1.68,.95,2.64,.05,2.32-1.77,4.14-4.04,4.14Z"/></g></g><g class="cls-5"><g><path class="cls-2" d="M36.52,69.51h3.44c.99,0,1.78-.8,1.78-1.78v-3h-.64v3c0,.64-.51,1.15-1.15,1.15h-12.36c-.64,0-1.15-.51-1.15-1.15v-3h-.64v3c0,.99,.8,1.78,1.78,1.78h3.44c-3.12,1.12-5.39,4.14-5.39,7.65v.32h16.25v-.32c0-3.51-2.26-6.53-5.39-7.65Zm-10.23,7.33c.16-3.98,3.47-7.17,7.49-7.17s7.33,3.19,7.49,7.17h-14.98Z"/><path class="cls-2" d="M37.38,71.2l-3.15,2.9c-.13-.1-.29-.13-.45-.13-.54,0-.96,.41-.96,.96s.41,.96,.96,.96,.96-.41,.96-.96c0-.16-.03-.32-.13-.45l2.9-3.15-.13-.13Z"/></g></g><g class="cls-5"><g id="b-4"><g id="c-4"><g><path class="cls-3" d="M112.63,151.79c-.22,.06-.33,.33-.22,.56,.28,.67,.39,1.39,.39,2.11,0,3.34-2.72,6.01-6.01,6.01s-6.01-2.67-6.01-6.01,2.67-6.01,6.01-6.01c.61,0,1.28,.11,1.89,.28,.22,.06,.45-.06,.5-.28s-.06-.45-.28-.5c-.67-.22-1.39-.33-2.11-.33-3.78,0-6.84,3.06-6.84,6.84s3.06,6.84,6.84,6.84,6.84-3.06,6.84-6.84c0-.83-.17-1.67-.45-2.45-.06-.17-.33-.28-.56-.22Zm-5.84,1.28c.22,0,.45-.17,.45-.45s-.17-.45-.45-.45c-1.22,0-2.22,1-2.22,2.22s1,2.22,2.22,2.22,2.22-1,2.22-2.22c0-.22-.17-.45-.45-.45s-.39,.28-.39,.5c0,.78-.61,1.39-1.39,1.39s-1.39-.61-1.39-1.39,.61-1.39,1.39-1.39h0Zm2.06-2.17c.11-.22,0-.45-.22-.56-.56-.28-1.22-.39-1.84-.39-2.5,0-4.56,2-4.56,4.51s2.06,4.56,4.56,4.56,4.56-2.06,4.56-4.56c0-.67-.11-1.28-.39-1.84-.11-.22-.33-.33-.56-.22s-.28,.33-.22,.56c.22,.5,.33,1,.33,1.5,0,2.06-1.67,3.73-3.73,3.73s-3.73-1.67-3.73-3.73,1.67-3.73,3.73-3.73c.56,0,1.06,.11,1.5,.33,.22,.11,.45,0,.56-.17h0Zm7.56-2.78c-.06-.17-.17-.28-.33-.28l-2.28-.39-.39-2.28c0-.17-.11-.28-.28-.33-.17-.06-.33,0-.45,.11l-2.72,2.72c-.11,.11-.17,.22-.11,.39l.45,2.34-3.5,3.5h-.06c-.33,0-.61,.28-.61,.61s.28,.61,.61,.61,.61-.28,.61-.61h0l3.56-3.56,2.28,.45h.06c.11,0,.22-.06,.28-.11l2.72-2.72c.17-.11,.22-.28,.17-.45Zm-5.67-.06l2-2,.28,1.56-1.95,1.95-.33-1.5Zm2.45,2.45l-1.5-.28,1.95-1.95,1.5,.28-1.95,1.95Z"/><path class="cls-3" d="M106.79,161.35c-3.8,0-6.89-3.09-6.89-6.89s3.09-6.89,6.89-6.89c.73,0,1.47,.12,2.13,.34,.12,.03,.21,.1,.27,.21,.06,.1,.07,.22,.04,.35-.06,.24-.3,.38-.56,.31-.66-.18-1.31-.28-1.88-.28-1.6,0-3.1,.62-4.22,1.74-1.12,1.12-1.74,2.62-1.74,4.22,0,3.29,2.67,5.96,5.96,5.96s5.96-2.67,5.96-5.96c0-.78-.13-1.48-.39-2.1-.06-.12-.06-.27,0-.4,.05-.11,.15-.19,.26-.22h0c.24-.06,.55,.06,.61,.25,.3,.83,.45,1.66,.45,2.46,0,3.8-3.09,6.89-6.89,6.89h0Zm0-13.68c-3.75,0-6.8,3.05-6.8,6.8s3.05,6.8,6.8,6.8,6.8-3.05,6.8-6.8c0-.79-.15-1.61-.44-2.43-.05-.14-.31-.24-.5-.19h0c-.09,.02-.16,.08-.2,.17-.05,.1-.04,.22,0,.32,.26,.63,.39,1.35,.39,2.13,0,3.34-2.72,6.05-6.05,6.05s-6.05-2.71-6.05-6.05c0-1.63,.63-3.15,1.77-4.29,1.14-1.14,2.66-1.77,4.29-1.77,.57,0,1.23,.1,1.9,.28,.21,.05,.4-.05,.44-.25,.02-.1,.01-.2-.03-.28-.04-.08-.12-.14-.21-.17-.65-.22-1.38-.33-2.1-.33h0Zm0,11.4c-2.54,0-4.61-2.07-4.61-4.61s2.07-4.55,4.61-4.55c.69,0,1.35,.14,1.86,.39,.12,.06,.21,.15,.26,.26,.05,.12,.04,.24-.02,.36h0c-.12,.18-.36,.31-.61,.19-.44-.22-.93-.33-1.48-.33-2.03,0-3.68,1.65-3.68,3.68s1.65,3.68,3.68,3.68,3.68-1.65,3.68-3.68c0-.49-.11-.99-.33-1.48-.07-.28,.02-.5,.24-.61,.12-.06,.24-.06,.36-.02,.11,.05,.2,.14,.26,.26,.26,.53,.39,1.14,.39,1.86,0,2.54-2.07,4.61-4.61,4.61h0Zm0-9.07c-2.49,0-4.52,2-4.52,4.46s2.03,4.52,4.52,4.52,4.52-2.03,4.52-4.52c0-.7-.13-1.3-.38-1.82-.05-.1-.13-.18-.21-.21-.09-.04-.19-.03-.28,.01-.26,.13-.23,.4-.2,.5,.22,.5,.34,1.01,.34,1.51,0,2.08-1.69,3.77-3.77,3.77s-3.77-1.69-3.77-3.77,1.69-3.77,3.77-3.77c.56,0,1.07,.11,1.52,.34,.2,.1,.4,0,.5-.15,.11-.22-.03-.4-.2-.49-.5-.25-1.14-.38-1.82-.38Zm0,6.67c-1.25,0-2.27-1.02-2.27-2.27s1.02-2.27,2.27-2.27c.3,0,.49,.19,.49,.49s-.25,.49-.49,.49c-.75,0-1.34,.59-1.34,1.34s.59,1.34,1.34,1.34,1.34-.59,1.34-1.34c0-.26,.14-.55,.43-.55s.49,.25,.49,.49c0,1.25-1.02,2.27-2.27,2.27h0Zm0-4.45c-1.2,0-2.18,.98-2.18,2.18s.98,2.18,2.18,2.18,2.18-.98,2.18-2.18c0-.19-.14-.4-.4-.4s-.34,.3-.34,.46c0,.81-.63,1.44-1.44,1.44s-1.44-.63-1.44-1.44,.63-1.44,1.44-1.44c.19,0,.4-.14,.4-.4s-.15-.4-.4-.4h0Zm-.06,2.95c-.36,0-.66-.3-.66-.66s.3-.66,.66-.66h.04l3.47-3.47-.44-2.31c-.07-.2,.02-.33,.12-.43l2.72-2.72c.13-.13,.32-.18,.49-.12,.2,.07,.31,.2,.31,.38l.38,2.24,2.25,.38h0c.17,0,.3,.11,.37,.31h0c.06,.19,0,.38-.18,.5l-2.72,2.72c-.06,.06-.18,.12-.31,.12h-.06l-2.27-.44-3.53,3.53c-.01,.35-.31,.64-.66,.64h0Zm0-1.22c-.31,0-.57,.26-.57,.57s.26,.57,.57,.57,.57-.26,.57-.57v-.02l3.59-3.59,2.3,.45h.05c.1,0,.2-.05,.25-.1l2.72-2.72c.15-.1,.21-.25,.16-.4h0c-.04-.11-.12-.25-.29-.25l-2.32-.4-.39-2.31c0-.18-.14-.26-.25-.3-.14-.05-.29,0-.4,.1l-2.72,2.72c-.1,.1-.15,.19-.1,.34l.45,2.37-3.53,3.53h-.07Zm6.47-3.39l-1.61-.3,2.02-2.02,1.61,.3-2.02,2.02h0Zm-1.42-.36l1.39,.26,1.87-1.87-1.39-.26-1.87,1.87Zm-.73-.55l-.36-1.61,2.08-2.08,.3,1.67-2.02,2.02h0Zm-.26-1.58l.31,1.4,1.87-1.87-.26-1.45-1.92,1.92Z"/></g></g></g></g><g class="cls-5"><path class="cls-3" d="M123.84,155.51s.08,0,.12,0c.32-.05,.53-.35,.47-.67v-.03c-.07-.34-.1-.69-.1-1.04,0-1.65,.76-3.2,2.06-4.22,.08,.31,.29,.57,.58,.71l.14,.06c.29,.13,.6,.2,.92,.2h0c.13,.07,.24,.18,.33,.3,.06,.28,.09,.57,.12,.85,.01,.25,.05,.5,.1,.75,0,.1,.03,.2,.05,.3,.02,.22,.18,.41,.39,.47,.05,0,.1,0,.14,0,.33,0,.58-.33,.94-.79,.07-.09,.16-.21,.2-.25l.09-.05c.35-.15,.61-.46,.71-.82,.02-.24,.02-.48,0-.72v-.63c.16-.13,.34-.24,.52-.35l1.03-.27c1.06,.7,1.83,1.75,2.18,2.96,.09,.32,.42,.51,.74,.41,.32-.09,.51-.42,.41-.74-1-3.47-4.62-5.48-8.1-4.48-2.81,.81-4.75,3.39-4.74,6.31,0,.42,.04,.83,.12,1.25,.04,.29,.29,.5,.58,.49Zm7.44-6.83l-.1,.05c-.86,.49-.97,.74-1,.83-.08,.35-.1,.7-.06,1.05v.5c-.08,.06-.16,.12-.25,.17l-.18,.12c-.08,.06-.15,.13-.21,.21-.03-.36-.08-.71-.16-1.07-.01-.06-.03-.12-.06-.17-.09-.14-.58-.83-1.2-.83-.2,0-.4-.04-.58-.13l-.12-.05c-.06-.11-.1-.23-.13-.36,.75-.38,1.58-.58,2.43-.58,.55,0,1.1,.07,1.62,.23h0Zm6.91,3.16c-.1-.45-.49-.78-1.16-.97-.26-.08-.54,.07-.62,.34-.08,.26,.07,.54,.34,.62,.41,.12,.47,.24,.47,.24,0,.41-2.12,2-7.16,3.17s-7.67,.69-7.82,.31c0,0,0-.17,.41-.5,.21-.17,.24-.48,.07-.68h0c-.17-.22-.48-.25-.69-.08h0c-.58,.51-.85,1.01-.74,1.49,.17,.72,1.04,1.11,2.68,1.16v.03c1.75,3.17,5.73,4.32,8.89,2.57,1.98-1.09,3.26-3.13,3.38-5.4,1.5-.8,2.15-1.55,1.97-2.29Zm-8.75,7.29l.47-.38,.82-.1c.16-.02,.31-.12,.38-.26l.18-.34,.18,.36-.12,.47c-.54,.17-1.1,.26-1.66,.26l-.25-.02Zm3.04-.78c0-.08-.02-.15-.05-.23l-.68-1.38c-.12-.24-.42-.34-.66-.22-.1,.05-.17,.12-.22,.22l-.52,.97-.71,.09c-.1,0-.19,.05-.26,.11l-1.08,.9s-.09,.09-.12,.14c-1.14-.33-2.13-1.03-2.83-1.99,1.67-.11,3.33-.36,4.96-.76,1.58-.36,3.13-.85,4.63-1.47-.27,1.51-1.16,2.83-2.47,3.63Z"/></g><g class="cls-5"><path class="cls-3" d="M95.37,152.38h-8.04c-.28,0,0-.26,0-.26h0c.13-.12,.23-.23,.3-.31,1.28-1.69,.19-4.22,.02-4.58-.6-1.06-1.33-1.64-2.06-1.93-.06-.02-.11-.04-.18-.07-.33-.12-.71-.24-1.14-.33-1.86-.28-3.63,.59-3.64,.6-1.61,.92-5.72,3.34-7.55,5.09-.09,.08-.18,.17-.26,.26-.07,.07-.13,.14-.19,.21-.02,.02-.03,.04-.05,.05-.05,.07-.11,.13-.15,.2h.01c-.36,.49-.65,1.07-.83,1.78-.58,1.83,.04,5.92,3.49,7.22,.15,.05,.82,.25,1.82,.25h9.44c.33-.01,1.11-.12,1.86-.79h0l7.02-6.28,.2-.18c1-.89-.07-.93-.07-.93Zm-14.66-5.41s3.41-1.97,5.23,.33c.24,.33,.49,.73,.68,1.17,.02,.06,.55,1.95-.33,2.92,0,0-.02,.02-.02,.03-.02,.02-.04,.04-.06,.06-.08,.07-.16,.14-.25,.21l-3.79,2.83c.09-1.65-.59-3.3-.93-3.84-.88-1.27-2.11-1.69-2.87-1.83-.24-.04-.68-.05-.68-.05l3.01-1.83Zm12.26,7.15l-4.94,4.49c-.77,.7-1.58,.82-1.94,.83h-9.41c-.74,0-1.52-.27-1.59-.3-.23-.11-.47-.24-.72-.4-2.69-1.72-1.89-5.02-1.75-5.49v-.02l.02-.04h0c.58-1.83,1.94-3.17,4.51-3.25,.32,0,1.25,.08,2.08,.71,.2,.17,.41,.36,.61,.6,.39,.51,1.31,1.99,.89,3.71-.34,1.12-.82,1.61-1.49,2.06-.67,.45-2,.87-3.26,.1-.73-.5-1.29-1.36-1.18-2.49,.1-1.14,1.27-1.96,2.32-1.71,1.04,.24,1.66,1.81,.53,2.43-.53,.23-.85,.09-1.06-.2h0s-.3-.28-.68-.11c-.38,.17-.26,.71-.26,.72,.41,.61,1.21,1.06,2.4,.64,.27-.1,.5-.25,.68-.43h0l.04-.05s.08-.09,.11-.13c.41-.5,1.37-2.02-.16-3.74-.89-.71-3.65-1.48-4.81,1.6-.04,.1-.08,.21-.11,.32,0,.02-.01,.03-.02,.04h0c-.2,.7-.2,1.55,.22,2.5,.93,2.11,3.6,2.68,5.55,1.63,.35-.19,.67-.42,.96-.69h0l4.7-3.69s.33-.3,.83-.3h6.9c.67,0,.09,.57,0,.64Z"/></g><g class="cls-5"><g id="b-5"><g id="c-5"><g><path class="cls-3" d="M157.68,62.98h-1.94c-.22,0-.42,.19-.42,.42s.19,.42,.42,.42h.94l-.97,.94-.69-.69c-.17-.17-.42-.17-.58,0s-.17,.42,0,.58l.69,.69-.42,.42c-1.27-1.05-3.02-1.36-4.57-.75-.22,.08-.33,.33-.25,.53,.08,.22,.33,.33,.53,.25,1.38-.53,2.94-.19,3.99,.86,.36,.36,.64,.78,.83,1.25,.06,.17,.22,.25,.39,.25,.06,0,.11,0,.17-.03,.22-.08,.3-.33,.22-.53-.17-.44-.42-.86-.72-1.22l.42-.42,.69,.69c.08,.08,.19,.11,.3,.11s.22-.03,.3-.11c.17-.17,.17-.42,0-.58l-.69-.69,.94-.94v.94c0,.22,.19,.42,.42,.42s.42-.19,.42-.42v-1.94c0-.06,0-.11-.03-.14h0c-.06-.11-.11-.19-.22-.22h0c-.06-.08-.11-.08-.17-.08h0Z"/><path class="cls-3" d="M155.05,72.48c.53-.53,.94-1.22,1.16-1.94,.06-.22-.06-.44-.28-.53-.22-.06-.44,.06-.53,.28-.17,.58-.5,1.14-.94,1.58-.69,.69-1.63,1.11-2.63,1.11s-1.94-.39-2.63-1.11c-1.22-1.22-1.44-3.07-.58-4.54,.11-.19,.06-.44-.14-.58-.19-.11-.44-.06-.58,.14-1.05,1.8-.78,4.07,.69,5.57,.86,.86,2.02,1.33,3.24,1.33s2.33-.42,3.21-1.3h0Z"/><path class="cls-3" d="M161.94,67.19c-.06-.11-.11-.19-.22-.22h0c-.06-.03-.11-.03-.14-.03h-1.99c-.22,0-.42,.19-.42,.42s.19,.42,.42,.42h.97l-1.94,1.94c-.83-.69-1.86-1.05-2.94-1.05-1.22,0-2.38,.47-3.24,1.33-.53,.53-.94,1.22-1.16,1.94-.06,.22,.06,.44,.28,.53,.22,.06,.44-.06,.53-.28,.17-.58,.5-1.14,.94-1.58,.69-.69,1.63-1.11,2.63-1.11s1.94,.39,2.63,1.11c1.47,1.47,1.47,3.82,0,5.29-.69,.69-1.63,1.11-2.63,1.11s-1.94-.39-2.63-1.11c-.36-.36-.64-.78-.83-1.25-.08-.22-.33-.3-.53-.22-.22,.08-.3,.33-.22,.53,.22,.58,.58,1.08,1.02,1.52,.86,.86,2.02,1.33,3.24,1.33s2.38-.47,3.24-1.33c1.69-1.69,1.77-4.35,.28-6.15l1.94-1.94v.94c0,.22,.19,.42,.42,.42s.42-.19,.42-.42v-1.99c-.03-.06-.03-.08-.06-.14h0Z"/><path class="cls-3" d="M147.74,72.56c-.44,.19-.94,.3-1.44,.3-2.05,0-3.74-1.69-3.74-3.74s1.66-3.74,3.74-3.74,3.74,1.69,3.74,3.74c0,.64-.17,1.27-.47,1.8-.11,.19-.03,.44,.17,.55,.19,.11,.44,.03,.55-.17,.39-.66,.58-1.44,.58-2.22,0-2.49-2.05-4.54-4.57-4.54s-4.57,2.05-4.57,4.57c0,2.38,1.83,4.35,4.15,4.54v1.99h-.97c-.22,0-.42,.19-.42,.42s.19,.42,.42,.42h.97v.94c0,.22,.19,.42,.42,.42s.42-.19,.42-.42v-.94h.97c.22,0,.42-.19,.42-.42s-.19-.42-.42-.42h-.97v-1.99c.47-.06,.91-.17,1.36-.33,.22-.08,.3-.33,.22-.55-.08-.19-.33-.3-.55-.22h0Z"/></g></g></g></g><g class="cls-5"><path class="cls-3" d="M177.25,76.76c-3.4,0-6.16-2.76-6.16-6.16s2.76-6.16,6.16-6.16,6.16,2.76,6.16,6.16-2.76,6.16-6.16,6.16Zm0-1.23c2.72,0,4.93-2.21,4.93-4.93s-2.21-4.93-4.93-4.93-4.93,2.21-4.93,4.93,2.21,4.93,4.93,4.93Zm-2.18-2.75c-.24-.24-.24-.63,0-.87s.63-.24,.87,0c.72,.72,1.89,.72,2.61,0,.24-.24,.63-.24,.87,0s.24,.63,0,.87c-1.2,1.2-3.15,1.21-4.36,0h0Zm.33-2.8c-.34,0-.62-.28-.62-.62s.28-.62,.62-.62,.62,.28,.62,.62-.28,.62-.62,.62Zm3.7,0c-.34,0-.62-.28-.62-.62s.28-.62,.62-.62,.62,.28,.62,.62-.28,.62-.62,.62Z"/></g><g class="cls-5"><g><path class="cls-3" d="M155.81,150.67c0,.52,.5,.98,1.02,.98h2.74c.52,0,.88-.46,.88-.98v-3.58c0-.52-.36-.91-.88-.91h-2.74c-.52,0-1.02,.39-1.02,.91v.14h-6.32v-.14c0-.52-.36-.91-.88-.91h-2.74c-.52,0-1.02,.39-1.02,.91v3.58c0,.52,.5,.98,1.02,.98h2.74c.52,0,.88-.46,.88-.98v-.07h6.32v.07Zm.84-.11v-3.48c0-.06,.12-.07,.17-.07h2.74c.06,0,.04,.01,.04,.07v3.58c0,.06,.02,.14-.04,.14h-2.74c-.06,0-.17-.08-.17-.14v-.11Zm-8.05,.25h-2.74c-.06,0-.17-.08-.17-.14v-3.58c0-.06,.12-.07,.17-.07h2.74c.06,0,.04,.01,.04,.07v3.58c0,.06,.02,.14-.04,.14Zm1.93-1.05h-1.05v-1.69h1.05v1.69Zm3.79,0h-3.37v-1.69h3.37v1.69Zm.42,0v-1.69h1.05v1.69h-1.05Z"/><path class="cls-3" d="M165.05,153.77h-2.74c-.52,0-1.02,.39-1.02,.91v.14h-6.32v-.14c0-.52-.36-.91-.88-.91h-2.74c-.52,0-1.02,.39-1.02,.91v3.58c0,.52,.5,.98,1.02,.98h2.74c.52,0,.88-.46,.88-.98v-.07h6.32v.07c0,.52,.5,.98,1.02,.98h2.74c.52,0,.88-.46,.88-.98v-3.58c0-.52-.36-.91-.88-.91Zm-10.96,4.64h-2.74c-.06,0-.17-.08-.17-.14v-3.58c0-.06,.12-.07,.17-.07h2.74c.06,0,.04,.01,.04,.07v3.58c0,.06,.02,.14-.04,.14Zm1.93-1.05h-1.05v-1.69h1.05v1.69Zm3.79,0h-3.37v-1.69h3.37v1.69Zm1.48,0h-1.05v-1.69h1.05v1.69Zm3.76,1.05h-2.74c-.06,0-.17-.08-.17-.14v-3.58c0-.06,.12-.07,.17-.07h2.74c.06,0,.04,.01,.04,.07v3.58c0,.06,.02,.14-.04,.14Z"/></g></g><g class="cls-5"><g id="_16-heart-2"><path class="cls-1" d="M183.31,147.3c-1.44-1.49-3.82-1.52-5.31-.08-.03,.03-.05,.05-.08,.08-1.44-1.49-3.82-1.52-5.31-.08-.03,.03-.05,.05-.08,.08-1.49,1.53-1.49,3.97,0,5.5l5.39,5.49,5.39-5.5c1.49-1.53,1.49-3.96,0-5.49Z"/><path class="cls-1" d="M182.25,150.06c0-.96-.78-1.73-1.73-1.73"/></g></g><g class="cls-5"><g id="b-6"><g id="c-6"><g><path class="cls-3" d="M110.37,127.73c-.28,0-.58-.06-.89-.17-.41-.15-.7-.33-.73-.36-.17-.11-.25-.32-.19-.52,.01-.04,.11-.36,.32-.73,.31-.54,.71-.9,1.16-1.06,.45-.16,.98-.14,1.56,.06,.41,.14,.71,.32,.72,.33,.18,.11,.26,.33,.2,.53-.02,.06-.42,1.36-1.46,1.78h0c-.21,.09-.45,.13-.7,.13h0Zm-.77-1.12c.32,.14,.77,.27,1.12,.13h0c.35-.14,.61-.52,.77-.83-.33-.13-.78-.25-1.13-.13-.35,.12-.6,.51-.76,.83h0Z"/><path class="cls-3" d="M107.31,138.55c-.47,0-.96-.19-1.46-.56-1.47-1.11-2.71-3.72-2.91-5.37-.28-2.32,1.18-4.48,3.25-4.83,.81-.16,1.72,.02,2.51,.51l.02,.02c.34,.24,.82,.23,1.21,0,.73-.48,1.65-.67,2.47-.51,2.13,.34,3.58,2.51,3.25,4.83-.2,1.65-1.44,4.26-2.91,5.36-.59,.45-1.18,.63-1.74,.53h-.02c-.33-.07-.63-.2-.87-.38-.48-.33-1.15-.33-1.63,0-.24,.18-.54,.31-.87,.38h-.02c-.1,.02-.19,.03-.29,.03h0Zm3.86-.95c.3,.05,.64-.07,1.02-.36,1.24-.94,2.37-3.27,2.54-4.73h0c.26-1.84-.85-3.53-2.48-3.79h-.02c-.58-.12-1.25,.02-1.78,.37h0c-.7,.45-1.59,.45-2.24,0-.58-.36-1.25-.49-1.83-.38h-.02c-1.59,.26-2.7,1.96-2.48,3.79,.17,1.46,1.3,3.8,2.54,4.73,.38,.28,.72,.4,1.02,.36,.19-.04,.37-.11,.5-.21h.01c.8-.56,1.91-.56,2.71-.01h.01c.13,.11,.3,.18,.5,.22h0Z"/><path class="cls-3" d="M109.3,129.42c-.26,0-.47-.21-.47-.47,0-1.26-.6-2.45-1.59-3.19l-.2-.15c-.21-.16-.25-.45-.09-.66,.16-.21,.45-.25,.66-.09l.2,.15c1.23,.91,1.97,2.38,1.97,3.94,0,.26-.21,.47-.47,.47h0Z"/></g></g></g></g><g class="cls-5"><g id="b-7"><g id="c-7"><g><path class="cls-3" d="M136.22,126.95c-.21,.21-.21,.57,0,.82,.21,.21,.57,.21,.82,0,.21-.21,.21-.57,0-.82-.21-.21-.57-.21-.82,0Zm2.11-.41l-1.6-1.6c-.46-.41-1.18-.46-1.65,0l-11.38,11.38c-.46,.46-.46,1.18,0,1.65l1.6,1.6c.21,.21,.52,.36,.82,.36s.62-.1,.82-.36l11.38-11.38c.21-.21,.36-.52,.36-.82s-.15-.62-.36-.82Zm-.57,1.13l-11.33,11.33c-.15,.15-.41,.15-.57,0l-1.6-1.6c-.15-.15-.15-.41,0-.57l.88-.88,.52,.52c.05,.05,.15,.1,.26,.1s.21-.05,.26-.1c.15-.15,.15-.41,0-.57l-.52-.52,1.49-1.49,.52,.52c.05,.05,.15,.1,.26,.1s.21-.05,.26-.1c.15-.15,.15-.41,0-.57l-.52-.52,1.49-1.49,.52,.52c.05,.05,.15,.1,.26,.1s.21-.05,.26-.1c.15-.15,.15-.41,0-.57l-.52-.52,1.49-1.49,.52,.52c.05,.05,.15,.1,.26,.1s.21-.05,.26-.1c.15-.15,.15-.41,0-.57l-.52-.52,1.49-1.49,.52,.52c.05,.05,.15,.1,.26,.1s.21-.05,.26-.1c.15-.15,.15-.41,0-.57l-.52-.52,1.8-1.8c.05-.05,.15-.1,.26-.1s.21,.05,.26,.1l1.75,1.75c.05,.05,.1,.15,.1,.26s0,.21-.1,.31h0Z"/><path class="cls-3" d="M126.13,139.97c-.3,0-.63-.14-.86-.37l-1.6-1.6c-.48-.48-.48-1.23,0-1.71l11.38-11.38c.45-.45,1.2-.45,1.71,0l1.6,1.6c.23,.23,.37,.56,.37,.86s-.14,.63-.37,.86l-11.38,11.38c-.19,.24-.5,.37-.86,.37h0Zm9.77-15.31c-.28,0-.56,.1-.77,.31l-11.38,11.38c-.44,.44-.44,1.14,0,1.58l1.6,1.6c.21,.21,.52,.35,.79,.35,.33,0,.61-.12,.79-.34l11.38-11.39c.21-.21,.35-.52,.35-.79s-.13-.58-.35-.79l-1.6-1.6c-.23-.21-.53-.31-.81-.31h0Zm-9.74,14.5c-.12,0-.23-.05-.32-.13l-1.6-1.6c-.08-.08-.13-.2-.13-.32s.05-.23,.13-.32l.91-.91,.55,.55s.14,.09,.23,.09,.18-.04,.23-.09c.14-.14,.14-.37,0-.5l-.55-.55,1.56-1.56,.55,.55s.14,.09,.23,.09,.18-.04,.23-.09c.14-.14,.14-.37,0-.5l-.55-.55,1.56-1.56,.55,.55s.14,.09,.23,.09,.18-.04,.23-.09c.14-.14,.14-.37,0-.5l-.55-.55,1.56-1.56,.55,.55s.14,.09,.23,.09,.18-.04,.23-.09c.14-.14,.14-.37,0-.5l-.55-.55,1.56-1.56,.55,.55s.14,.09,.23,.09,.18-.04,.23-.09c.14-.14,.14-.37,0-.5l-.55-.55,1.83-1.83c.06-.06,.17-.12,.29-.12s.23,.06,.29,.12l1.75,1.75c.06,.06,.12,.17,.12,.29,0,.11,0,.22-.12,.34l-11.33,11.32c-.08,.08-.2,.13-.32,.13Zm-1-3.13l-.84,.84c-.07,.07-.1,.15-.1,.25s.04,.19,.1,.25l1.6,1.6c.07,.07,.15,.1,.25,.1s.19-.04,.25-.1l11.33-11.33c.09-.09,.09-.18,.09-.28,0-.09-.04-.18-.09-.23l-1.75-1.75s-.14-.09-.23-.09-.18,.04-.23,.09l-1.77,1.77,.48,.48c.17,.17,.17,.46,0,.63-.06,.06-.17,.12-.29,.12s-.23-.06-.29-.12l-.48-.48-1.43,1.43,.48,.48c.17,.17,.17,.46,0,.63-.06,.06-.17,.12-.29,.12s-.23-.06-.29-.12l-.48-.48-1.43,1.43,.48,.48c.17,.17,.17,.46,0,.63-.06,.06-.17,.12-.29,.12s-.23-.06-.29-.12l-.48-.48-1.43,1.43,.48,.48c.17,.17,.17,.46,0,.63-.06,.06-.17,.12-.29,.12s-.23-.06-.29-.12l-.48-.48-1.43,1.43,.48,.48c.17,.17,.17,.46,0,.63-.06,.06-.17,.12-.29,.12s-.23-.06-.29-.12l-.48-.48h0Zm11.46-8.05c-.16,0-.31-.06-.42-.17-.22-.28-.22-.67,0-.89h0c.27-.22,.66-.22,.89,0,.22,.28,.22,.67,0,.89-.14,.11-.31,.17-.46,.17h0Zm-.36-.99c-.19,.19-.19,.52,0,.76,.19,.19,.52,.18,.76,0,.19-.19,.18-.52,0-.76-.19-.19-.52-.18-.76,0h0Z"/></g></g></g></g><g class="cls-5"><g id="b-8"><g id="c-8"><path id="d-2" class="cls-4" d="M86.8,133.11h-6.75v3.9c0,.93-.75,1.68-1.67,1.68s-1.67-.75-1.67-1.68v-.65c-.17,.06-.36,.1-.56,.1-.93,0-1.67-.75-1.67-1.68v-1.67h-2.23v-1.12h2.23v-1.67c0-.93,.75-1.68,1.67-1.68,.2,0,.38,.03,.56,.09h0v-.65c0-.93,.75-1.68,1.67-1.68s1.67,.75,1.67,1.68v3.9h6.75v-3.9c0-.93,.75-1.68,1.67-1.68s1.67,.75,1.67,1.68v.65c.17-.06,.36-.1,.56-.1,.93,0,1.67,.75,1.67,1.68v1.67h2.23v1.12h-2.23v1.67c0,.93-.75,1.68-1.67,1.68-.2,0-.38-.03-.56-.09v.65c0,.93-.75,1.68-1.67,1.68s-1.67-.75-1.67-1.68v-3.9h0Zm3.91-3.35c-.31,0-.56,.24-.56,.56v4.47c0,.31,.26,.56,.56,.56s.56-.24,.56-.56v-4.47c0-.31-.26-.56-.56-.56h0Zm-14.57,0c-.31,0-.56,.24-.56,.56v4.47c0,.31,.26,.56,.56,.56s.56-.24,.56-.56v-4.47c0-.31-.26-.56-.56-.56h0Zm12.33-2.23c-.31,0-.56,.25-.56,.57v8.91c0,.31,.26,.57,.56,.57s.56-.25,.56-.57v-8.91c0-.31-.26-.57-.56-.57h0Zm-10.1,0c-.31,0-.56,.25-.56,.57v8.91c0,.31,.26,.57,.56,.57s.56-.25,.56-.57v-8.91c0-.31-.26-.57-.56-.57h0Z"/></g></g></g><g class="cls-5"><g id="b-9"><g id="c-9"><g><path class="cls-3" d="M180.96,85.5c-.28,0-.58-.06-.89-.17-.41-.15-.7-.33-.73-.36-.17-.11-.25-.32-.19-.52,.01-.04,.11-.36,.32-.73,.31-.54,.71-.9,1.16-1.06,.45-.16,.98-.14,1.56,.06,.41,.14,.71,.32,.72,.33,.18,.11,.26,.33,.2,.53-.02,.06-.42,1.36-1.46,1.78h0c-.21,.09-.45,.13-.7,.13h0Zm-.77-1.12c.32,.14,.77,.27,1.12,.13h0c.35-.14,.61-.52,.77-.83-.33-.13-.78-.25-1.13-.13-.35,.12-.6,.51-.76,.83h0Z"/><path class="cls-3" d="M177.89,96.32c-.47,0-.96-.19-1.46-.56-1.47-1.11-2.71-3.72-2.91-5.37-.28-2.32,1.18-4.48,3.25-4.83,.81-.16,1.72,.02,2.51,.51l.02,.02c.34,.24,.82,.23,1.21,0,.73-.48,1.65-.67,2.47-.51,2.13,.34,3.58,2.51,3.25,4.83-.2,1.65-1.44,4.26-2.91,5.36-.59,.45-1.18,.63-1.74,.53h-.02c-.33-.07-.63-.2-.87-.38-.48-.33-1.15-.33-1.63,0-.24,.18-.54,.31-.87,.38h-.02c-.1,.02-.19,.03-.29,.03h0Zm3.86-.95c.3,.05,.64-.07,1.02-.36,1.24-.94,2.37-3.27,2.54-4.73h0c.26-1.84-.85-3.53-2.48-3.79h-.02c-.58-.12-1.25,.02-1.78,.37h0c-.7,.45-1.59,.45-2.24,0-.58-.36-1.25-.49-1.83-.38h-.02c-1.59,.26-2.7,1.96-2.48,3.79,.17,1.46,1.3,3.8,2.54,4.73,.38,.28,.72,.4,1.02,.36,.19-.04,.37-.11,.5-.21h.01c.8-.56,1.91-.56,2.71-.01h.01c.13,.11,.3,.18,.5,.22h0Z"/><path class="cls-3" d="M179.89,87.19c-.26,0-.47-.21-.47-.47,0-1.26-.6-2.45-1.59-3.19l-.2-.15c-.21-.16-.25-.45-.09-.66,.16-.21,.45-.25,.66-.09l.2,.15c1.23,.91,1.97,2.38,1.97,3.94,0,.26-.21,.47-.47,.47h0Z"/></g></g></g></g><g class="cls-5"><g id="b-10"><g id="c-10"><g><path class="cls-3" d="M159.67,124.81h-1.94c-.22,0-.42,.19-.42,.42s.19,.42,.42,.42h.94l-.97,.94-.69-.69c-.17-.17-.42-.17-.58,0s-.17,.42,0,.58l.69,.69-.42,.42c-1.27-1.05-3.02-1.36-4.57-.75-.22,.08-.33,.33-.25,.53,.08,.22,.33,.33,.53,.25,1.38-.53,2.94-.19,3.99,.86,.36,.36,.64,.78,.83,1.25,.06,.17,.22,.25,.39,.25,.06,0,.11,0,.17-.03,.22-.08,.3-.33,.22-.53-.17-.44-.42-.86-.72-1.22l.42-.42,.69,.69c.08,.08,.19,.11,.3,.11s.22-.03,.3-.11c.17-.17,.17-.42,0-.58l-.69-.69,.94-.94v.94c0,.22,.19,.42,.42,.42s.42-.19,.42-.42v-1.94c0-.06,0-.11-.03-.14h0c-.06-.11-.11-.19-.22-.22h0c-.06-.08-.11-.08-.17-.08h0Z"/><path class="cls-3" d="M157.04,134.31c.53-.53,.94-1.22,1.16-1.94,.06-.22-.06-.44-.28-.53-.22-.06-.44,.06-.53,.28-.17,.58-.5,1.14-.94,1.58-.69,.69-1.63,1.11-2.63,1.11s-1.94-.39-2.63-1.11c-1.22-1.22-1.44-3.07-.58-4.54,.11-.19,.06-.44-.14-.58-.19-.11-.44-.06-.58,.14-1.05,1.8-.78,4.07,.69,5.57,.86,.86,2.02,1.33,3.24,1.33s2.33-.42,3.21-1.3h0Z"/><path class="cls-3" d="M163.94,129.02c-.06-.11-.11-.19-.22-.22h0c-.06-.03-.11-.03-.14-.03h-1.99c-.22,0-.42,.19-.42,.42s.19,.42,.42,.42h.97l-1.94,1.94c-.83-.69-1.86-1.05-2.94-1.05-1.22,0-2.38,.47-3.24,1.33-.53,.53-.94,1.22-1.16,1.94-.06,.22,.06,.44,.28,.53,.22,.06,.44-.06,.53-.28,.17-.58,.5-1.14,.94-1.58,.69-.69,1.63-1.11,2.63-1.11s1.94,.39,2.63,1.11c1.47,1.47,1.47,3.82,0,5.29-.69,.69-1.63,1.11-2.63,1.11s-1.94-.39-2.63-1.11c-.36-.36-.64-.78-.83-1.25-.08-.22-.33-.3-.53-.22-.22,.08-.3,.33-.22,.53,.22,.58,.58,1.08,1.02,1.52,.86,.86,2.02,1.33,3.24,1.33s2.38-.47,3.24-1.33c1.69-1.69,1.77-4.35,.28-6.15l1.94-1.94v.94c0,.22,.19,.42,.42,.42s.42-.19,.42-.42v-1.99c-.03-.06-.03-.08-.06-.14h0Z"/><path class="cls-3" d="M149.73,134.39c-.44,.19-.94,.3-1.44,.3-2.05,0-3.74-1.69-3.74-3.74s1.66-3.74,3.74-3.74,3.74,1.69,3.74,3.74c0,.64-.17,1.27-.47,1.8-.11,.19-.03,.44,.17,.55,.19,.11,.44,.03,.55-.17,.39-.66,.58-1.44,.58-2.22,0-2.49-2.05-4.54-4.57-4.54s-4.57,2.05-4.57,4.57c0,2.38,1.83,4.35,4.15,4.54v1.99h-.97c-.22,0-.42,.19-.42,.42s.19,.42,.42,.42h.97v.94c0,.22,.19,.42,.42,.42s.42-.19,.42-.42v-.94h.97c.22,0,.42-.19,.42-.42s-.19-.42-.42-.42h-.97v-1.99c.47-.06,.91-.17,1.36-.33,.22-.08,.3-.33,.22-.55-.08-.19-.33-.3-.55-.22h0Z"/></g></g></g></g><g class="cls-5"><g id="b-11"><g id="c-11"><g><path class="cls-3" d="M183.76,109.09c-.22,.06-.33,.33-.22,.56,.28,.67,.39,1.39,.39,2.11,0,3.34-2.72,6.01-6.01,6.01s-6.01-2.67-6.01-6.01,2.67-6.01,6.01-6.01c.61,0,1.28,.11,1.89,.28,.22,.06,.45-.06,.5-.28s-.06-.45-.28-.5c-.67-.22-1.39-.33-2.11-.33-3.78,0-6.84,3.06-6.84,6.84s3.06,6.84,6.84,6.84,6.84-3.06,6.84-6.84c0-.83-.17-1.67-.45-2.45-.06-.17-.33-.28-.56-.22Zm-5.84,1.28c.22,0,.45-.17,.45-.45s-.17-.45-.45-.45c-1.22,0-2.22,1-2.22,2.22s1,2.22,2.22,2.22,2.22-1,2.22-2.22c0-.22-.17-.45-.45-.45s-.39,.28-.39,.5c0,.78-.61,1.39-1.39,1.39s-1.39-.61-1.39-1.39,.61-1.39,1.39-1.39h0Zm2.06-2.17c.11-.22,0-.45-.22-.56-.56-.28-1.22-.39-1.84-.39-2.5,0-4.56,2-4.56,4.51s2.06,4.56,4.56,4.56,4.56-2.06,4.56-4.56c0-.67-.11-1.28-.39-1.84-.11-.22-.33-.33-.56-.22s-.28,.33-.22,.56c.22,.5,.33,1,.33,1.5,0,2.06-1.67,3.73-3.73,3.73s-3.73-1.67-3.73-3.73,1.67-3.73,3.73-3.73c.56,0,1.06,.11,1.5,.33,.22,.11,.45,0,.56-.17h0Zm7.56-2.78c-.06-.17-.17-.28-.33-.28l-2.28-.39-.39-2.28c0-.17-.11-.28-.28-.33-.17-.06-.33,0-.45,.11l-2.72,2.72c-.11,.11-.17,.22-.11,.39l.45,2.34-3.5,3.5h-.06c-.33,0-.61,.28-.61,.61s.28,.61,.61,.61,.61-.28,.61-.61h0l3.56-3.56,2.28,.45h.06c.11,0,.22-.06,.28-.11l2.72-2.72c.17-.11,.22-.28,.17-.45Zm-5.67-.06l2-2,.28,1.56-1.95,1.95-.33-1.5Zm2.45,2.45l-1.5-.28,1.95-1.95,1.5,.28-1.95,1.95Z"/><path class="cls-3" d="M177.92,118.65c-3.8,0-6.89-3.09-6.89-6.89s3.09-6.89,6.89-6.89c.73,0,1.47,.12,2.13,.34,.12,.03,.21,.1,.27,.21,.06,.1,.07,.22,.04,.35-.06,.24-.3,.38-.56,.31-.66-.18-1.31-.28-1.88-.28-1.6,0-3.1,.62-4.22,1.74-1.12,1.12-1.74,2.62-1.74,4.22,0,3.29,2.67,5.96,5.96,5.96s5.96-2.67,5.96-5.96c0-.78-.13-1.48-.39-2.1-.06-.12-.06-.27,0-.4,.05-.11,.15-.19,.26-.22h0c.24-.06,.55,.06,.61,.25,.3,.83,.45,1.66,.45,2.46,0,3.8-3.09,6.89-6.89,6.89h0Zm0-13.68c-3.75,0-6.8,3.05-6.8,6.8s3.05,6.8,6.8,6.8,6.8-3.05,6.8-6.8c0-.79-.15-1.61-.44-2.43-.05-.14-.31-.24-.5-.19h0c-.09,.02-.16,.08-.2,.17-.05,.1-.04,.22,0,.32,.26,.63,.39,1.35,.39,2.13,0,3.34-2.72,6.05-6.05,6.05s-6.05-2.71-6.05-6.05c0-1.63,.63-3.15,1.77-4.29,1.14-1.14,2.66-1.77,4.29-1.77,.57,0,1.23,.1,1.9,.28,.21,.05,.4-.05,.44-.25,.02-.1,.01-.2-.03-.28-.04-.08-.12-.14-.21-.17-.65-.22-1.38-.33-2.1-.33h0Zm0,11.4c-2.54,0-4.61-2.07-4.61-4.61s2.07-4.55,4.61-4.55c.69,0,1.35,.14,1.86,.39,.12,.06,.21,.15,.26,.26,.05,.12,.04,.24-.02,.36h0c-.12,.18-.36,.31-.61,.19-.44-.22-.93-.33-1.48-.33-2.03,0-3.68,1.65-3.68,3.68s1.65,3.68,3.68,3.68,3.68-1.65,3.68-3.68c0-.49-.11-.99-.33-1.48-.07-.28,.02-.5,.24-.61,.12-.06,.24-.06,.36-.02,.11,.05,.2,.14,.26,.26,.26,.53,.39,1.14,.39,1.86,0,2.54-2.07,4.61-4.61,4.61h0Zm0-9.07c-2.49,0-4.52,2-4.52,4.46s2.03,4.52,4.52,4.52,4.52-2.03,4.52-4.52c0-.7-.13-1.3-.38-1.82-.05-.1-.13-.18-.21-.21-.09-.04-.19-.03-.28,.01-.26,.13-.23,.4-.2,.5,.22,.5,.34,1.01,.34,1.51,0,2.08-1.69,3.77-3.77,3.77s-3.77-1.69-3.77-3.77,1.69-3.77,3.77-3.77c.56,0,1.07,.11,1.52,.34,.2,.1,.4,0,.5-.15,.11-.22-.03-.4-.2-.49-.5-.25-1.14-.38-1.82-.38Zm0,6.67c-1.25,0-2.27-1.02-2.27-2.27s1.02-2.27,2.27-2.27c.3,0,.49,.19,.49,.49s-.25,.49-.49,.49c-.75,0-1.34,.59-1.34,1.34s.59,1.34,1.34,1.34,1.34-.59,1.34-1.34c0-.26,.14-.55,.43-.55s.49,.25,.49,.49c0,1.25-1.02,2.27-2.27,2.27h0Zm0-4.45c-1.2,0-2.18,.98-2.18,2.18s.98,2.18,2.18,2.18,2.18-.98,2.18-2.18c0-.19-.14-.4-.4-.4s-.34,.3-.34,.46c0,.81-.63,1.44-1.44,1.44s-1.44-.63-1.44-1.44,.63-1.44,1.44-1.44c.19,0,.4-.14,.4-.4s-.15-.4-.4-.4h0Zm-.06,2.95c-.36,0-.66-.3-.66-.66s.3-.66,.66-.66h.04l3.47-3.47-.44-2.31c-.07-.2,.02-.33,.12-.43l2.72-2.72c.13-.13,.32-.18,.49-.12,.2,.07,.31,.2,.31,.38l.38,2.24,2.25,.38h0c.17,0,.3,.11,.37,.31h0c.06,.19,0,.38-.18,.5l-2.72,2.72c-.06,.06-.18,.12-.31,.12h-.06l-2.27-.44-3.53,3.53c-.01,.35-.31,.64-.66,.64h0Zm0-1.22c-.31,0-.57,.26-.57,.57s.26,.57,.57,.57,.57-.26,.57-.57v-.02l3.59-3.59,2.3,.45h.05c.1,0,.2-.05,.25-.1l2.72-2.72c.15-.1,.21-.25,.16-.4h0c-.04-.11-.12-.25-.29-.25l-2.32-.4-.39-2.31c0-.18-.14-.26-.25-.3-.14-.05-.29,0-.4,.1l-2.72,2.72c-.1,.1-.15,.19-.1,.34l.45,2.37-3.53,3.53h-.07Zm6.47-3.39l-1.61-.3,2.02-2.02,1.61,.3-2.02,2.02h0Zm-1.42-.36l1.39,.26,1.87-1.87-1.39-.26-1.87,1.87Zm-.73-.55l-.36-1.61,2.08-2.08,.3,1.67-2.02,2.02h0Zm-.26-1.58l.31,1.4,1.87-1.87-.26-1.45-1.92,1.92Z"/></g></g></g></g><g class="cls-5"><g id="b-12"><g id="c-12"><path id="d-3" class="cls-4" d="M158.76,90.74h-6.75v3.9c0,.93-.75,1.68-1.67,1.68s-1.67-.75-1.67-1.68v-.65c-.17,.06-.36,.1-.56,.1-.93,0-1.67-.75-1.67-1.68v-1.67h-2.23v-1.12h2.23v-1.67c0-.93,.75-1.68,1.67-1.68,.2,0,.38,.03,.56,.09h0v-.65c0-.93,.75-1.68,1.67-1.68s1.67,.75,1.67,1.68v3.9h6.75v-3.9c0-.93,.75-1.68,1.67-1.68s1.67,.75,1.67,1.68v.65c.17-.06,.36-.1,.56-.1,.93,0,1.67,.75,1.67,1.68v1.67h2.23v1.12h-2.23v1.67c0,.93-.75,1.68-1.67,1.68-.2,0-.38-.03-.56-.09v.65c0,.93-.75,1.68-1.67,1.68s-1.67-.75-1.67-1.68v-3.9h0Zm3.91-3.35c-.31,0-.56,.24-.56,.56v4.47c0,.31,.26,.56,.56,.56s.56-.24,.56-.56v-4.47c0-.31-.26-.56-.56-.56h0Zm-14.57,0c-.31,0-.56,.24-.56,.56v4.47c0,.31,.26,.56,.56,.56s.56-.24,.56-.56v-4.47c0-.31-.26-.56-.56-.56h0Zm12.33-2.23c-.31,0-.56,.25-.56,.57v8.91c0,.31,.26,.57,.56,.57s.56-.25,.56-.57v-8.91c0-.31-.26-.57-.56-.57h0Zm-10.1,0c-.31,0-.56,.25-.56,.57v8.91c0,.31,.26,.57,.56,.57s.56-.25,.56-.57v-8.91c0-.31-.26-.57-.56-.57h0Z"/></g></g></g><g class="cls-5"><path class="cls-3" d="M177.44,139.05c-3.4,0-6.16-2.76-6.16-6.16s2.76-6.16,6.16-6.16,6.16,2.76,6.16,6.16-2.76,6.16-6.16,6.16Zm0-1.23c2.72,0,4.93-2.21,4.93-4.93s-2.21-4.93-4.93-4.93-4.93,2.21-4.93,4.93,2.21,4.93,4.93,4.93Zm-2.18-2.75c-.24-.24-.24-.63,0-.87s.63-.24,.87,0c.72,.72,1.89,.72,2.61,0,.24-.24,.63-.24,.87,0s.24,.63,0,.87c-1.2,1.2-3.15,1.21-4.36,0h0Zm.33-2.8c-.34,0-.62-.28-.62-.62s.28-.62,.62-.62,.62,.28,.62,.62-.28,.62-.62,.62Zm3.7,0c-.34,0-.62-.28-.62-.62s.28-.62,.62-.62,.62,.28,.62,.62-.28,.62-.62,.62Z"/></g><g class="cls-5"><path class="cls-3" d="M166.5,109.69h-8.04c-.28,0,0-.26,0-.26h0c.13-.12,.23-.23,.3-.31,1.28-1.69,.19-4.22,.02-4.58-.6-1.06-1.33-1.64-2.06-1.93-.06-.02-.11-.04-.18-.07-.33-.12-.71-.24-1.14-.33-1.86-.28-3.63,.59-3.64,.6-1.61,.92-5.72,3.34-7.55,5.09-.09,.08-.18,.17-.26,.26-.07,.07-.13,.14-.19,.21-.02,.02-.03,.04-.05,.05-.05,.07-.11,.13-.15,.2h.01c-.36,.49-.65,1.07-.83,1.78-.58,1.83,.04,5.92,3.49,7.22,.15,.05,.82,.25,1.82,.25h9.44c.33-.01,1.11-.12,1.86-.79h0l7.02-6.28,.2-.18c1-.89-.07-.93-.07-.93Zm-14.66-5.41s3.41-1.97,5.23,.33c.24,.33,.49,.73,.68,1.17,.02,.06,.55,1.95-.33,2.92,0,0-.02,.02-.02,.03-.02,.02-.04,.04-.06,.06-.08,.07-.16,.14-.25,.21l-3.79,2.83c.09-1.65-.59-3.3-.93-3.84-.88-1.27-2.11-1.69-2.87-1.83-.24-.04-.68-.05-.68-.05l3.01-1.83Zm12.26,7.15l-4.94,4.49c-.77,.7-1.58,.82-1.94,.83h-9.41c-.74,0-1.52-.27-1.59-.3-.23-.11-.47-.24-.72-.4-2.69-1.72-1.89-5.02-1.75-5.49v-.02l.02-.04h0c.58-1.83,1.94-3.17,4.51-3.25,.32,0,1.25,.08,2.08,.71,.2,.17,.41,.36,.61,.6,.39,.51,1.31,1.99,.89,3.71-.34,1.12-.82,1.61-1.49,2.06-.67,.45-2,.87-3.26,.1-.73-.5-1.29-1.36-1.18-2.49,.1-1.14,1.27-1.96,2.32-1.71,1.04,.24,1.66,1.81,.53,2.43-.53,.23-.85,.09-1.06-.2h0s-.3-.28-.68-.11c-.38,.17-.26,.71-.26,.72,.41,.61,1.21,1.06,2.4,.64,.27-.1,.5-.25,.68-.43h0l.04-.05s.08-.09,.11-.13c.41-.5,1.37-2.02-.16-3.74-.89-.71-3.65-1.48-4.81,1.6-.04,.1-.08,.21-.11,.32,0,.02-.01,.03-.02,.04h0c-.2,.7-.2,1.55,.22,2.5,.93,2.11,3.6,2.68,5.55,1.63,.35-.19,.67-.42,.96-.69h0l4.7-3.69s.33-.3,.83-.3h6.9c.67,0,.09,.57,0,.64Z"/></g><g class="cls-5"><g id="b-13"><g id="c-13"><g><path class="cls-3" d="M88.33,84.26h-1.94c-.22,0-.42,.19-.42,.42s.19,.42,.42,.42h.94l-.97,.94-.69-.69c-.17-.17-.42-.17-.58,0s-.17,.42,0,.58l.69,.69-.42,.42c-1.27-1.05-3.02-1.36-4.57-.75-.22,.08-.33,.33-.25,.53,.08,.22,.33,.33,.53,.25,1.38-.53,2.94-.19,3.99,.86,.36,.36,.64,.78,.83,1.25,.06,.17,.22,.25,.39,.25,.06,0,.11,0,.17-.03,.22-.08,.3-.33,.22-.53-.17-.44-.42-.86-.72-1.22l.42-.42,.69,.69c.08,.08,.19,.11,.3,.11s.22-.03,.3-.11c.17-.17,.17-.42,0-.58l-.69-.69,.94-.94v.94c0,.22,.19,.42,.42,.42s.42-.19,.42-.42v-1.94c0-.06,0-.11-.03-.14h0c-.06-.11-.11-.19-.22-.22h0c-.06-.08-.11-.08-.17-.08h0Z"/><path class="cls-3" d="M85.7,93.76c.53-.53,.94-1.22,1.16-1.94,.06-.22-.06-.44-.28-.53-.22-.06-.44,.06-.53,.28-.17,.58-.5,1.14-.94,1.58-.69,.69-1.63,1.11-2.63,1.11s-1.94-.39-2.63-1.11c-1.22-1.22-1.44-3.07-.58-4.54,.11-.19,.06-.44-.14-.58-.19-.11-.44-.06-.58,.14-1.05,1.8-.78,4.07,.69,5.57,.86,.86,2.02,1.33,3.24,1.33s2.33-.42,3.21-1.3h0Z"/><path class="cls-3" d="M92.6,88.47c-.06-.11-.11-.19-.22-.22h0c-.06-.03-.11-.03-.14-.03h-1.99c-.22,0-.42,.19-.42,.42s.19,.42,.42,.42h.97l-1.94,1.94c-.83-.69-1.86-1.05-2.94-1.05-1.22,0-2.38,.47-3.24,1.33-.53,.53-.94,1.22-1.16,1.94-.06,.22,.06,.44,.28,.53,.22,.06,.44-.06,.53-.28,.17-.58,.5-1.14,.94-1.58,.69-.69,1.63-1.11,2.63-1.11s1.94,.39,2.63,1.11c1.47,1.47,1.47,3.82,0,5.29-.69,.69-1.63,1.11-2.63,1.11s-1.94-.39-2.63-1.11c-.36-.36-.64-.78-.83-1.25-.08-.22-.33-.3-.53-.22-.22,.08-.3,.33-.22,.53,.22,.58,.58,1.08,1.02,1.52,.86,.86,2.02,1.33,3.24,1.33s2.38-.47,3.24-1.33c1.69-1.69,1.77-4.35,.28-6.15l1.94-1.94v.94c0,.22,.19,.42,.42,.42s.42-.19,.42-.42v-1.99c-.03-.06-.03-.08-.06-.14h0Z"/><path class="cls-3" d="M78.39,93.85c-.44,.19-.94,.3-1.44,.3-2.05,0-3.74-1.69-3.74-3.74s1.66-3.74,3.74-3.74,3.74,1.69,3.74,3.74c0,.64-.17,1.27-.47,1.8-.11,.19-.03,.44,.17,.55,.19,.11,.44,.03,.55-.17,.39-.66,.58-1.44,.58-2.22,0-2.49-2.05-4.54-4.57-4.54s-4.57,2.05-4.57,4.57c0,2.38,1.83,4.35,4.15,4.54v1.99h-.97c-.22,0-.42,.19-.42,.42s.19,.42,.42,.42h.97v.94c0,.22,.19,.42,.42,.42s.42-.19,.42-.42v-.94h.97c.22,0,.42-.19,.42-.42s-.19-.42-.42-.42h-.97v-1.99c.47-.06,.91-.17,1.36-.33,.22-.08,.3-.33,.22-.55-.08-.19-.33-.3-.55-.22h0Z"/></g></g></g></g><g class="cls-5"><path class="cls-3" d="M106.1,98.51c-3.4,0-6.16-2.76-6.16-6.16s2.76-6.16,6.16-6.16,6.16,2.76,6.16,6.16-2.76,6.16-6.16,6.16Zm0-1.23c2.72,0,4.93-2.21,4.93-4.93s-2.21-4.93-4.93-4.93-4.93,2.21-4.93,4.93,2.21,4.93,4.93,4.93Zm-2.18-2.75c-.24-.24-.24-.63,0-.87s.63-.24,.87,0c.72,.72,1.89,.72,2.61,0,.24-.24,.63-.24,.87,0s.24,.63,0,.87c-1.2,1.2-3.15,1.21-4.36,0h0Zm.33-2.8c-.34,0-.62-.28-.62-.62s.28-.62,.62-.62,.62,.28,.62,.62-.28,.62-.62,.62Zm3.7,0c-.34,0-.62-.28-.62-.62s.28-.62,.62-.62,.62,.28,.62,.62-.28,.62-.62,.62Z"/></g><g class="cls-5"><g id="_16-heart-3"><path class="cls-1" d="M86.91,107.08c-1.44-1.49-3.82-1.52-5.31-.08-.03,.03-.05,.05-.08,.08-1.44-1.49-3.82-1.52-5.31-.08-.03,.03-.05,.05-.08,.08-1.49,1.53-1.49,3.97,0,5.5l5.39,5.49,5.39-5.5c1.49-1.53,1.49-3.96,0-5.49Z"/><path class="cls-1" d="M85.86,109.84c0-.96-.78-1.73-1.73-1.73"/></g></g><g class="cls-5"><g><path class="cls-3" d="M128.3,108.1c-1.5,0-2.73,1.23-2.73,2.73s1.23,2.73,2.73,2.73,2.73-1.23,2.73-2.73-1.23-2.73-2.73-2.73Zm0,4.54c-1,0-1.82-.82-1.82-1.82s.82-1.82,1.82-1.82,1.82,.82,1.82,1.82-.82,1.82-1.82,1.82Z"/><path class="cls-3" d="M128.84,109.97c-.23,.14-.27,.41-.18,.64,.09,.05,.09,.14,.09,.23,0,.27-.18,.45-.45,.45s-.45,.18-.45,.45,.18,.45,.45,.45c.77,0,1.36-.59,1.36-1.36,0-.23-.05-.5-.18-.68-.14-.23-.41-.27-.64-.18Z"/><path class="cls-3" d="M134.02,109.97c-.64-2.68-3-4.59-5.77-4.59-3.23,0-5.86,2.64-5.86,5.86,0,2,1.05,3.86,2.68,4.95,.09,1.05,.95,1.91,2.04,1.91,.41,0,.82-.14,1.14-.36,.59,.23,1.18,.36,1.82,.36,2.77,0,5-2.23,5-5,.05-1.14-.36-2.23-1.05-3.14Zm-3.91,7.23c-.59,0-1.18-.14-1.73-.36-.05-.05-.14-.05-.18-.05-.09,0-.23,.05-.32,.14-.23,.18-.5,.32-.77,.32-.64,0-1.14-.5-1.14-1.14v-.09c0-.18-.09-.32-.23-.41-1.55-.91-2.45-2.54-2.45-4.27,0-2.82,2.23-5.04,4.95-5.04,2.36,0,4.41,1.68,4.86,3.95,0,.09,.05,.14,.09,.18,.64,.73,.95,1.68,.95,2.64,.05,2.32-1.77,4.14-4.04,4.14Z"/></g></g><g class="cls-5"><g><path class="cls-3" d="M128.89,89.91c0,.52,.5,.98,1.02,.98h2.74c.52,0,.88-.46,.88-.98v-3.58c0-.52-.36-.91-.88-.91h-2.74c-.52,0-1.02,.39-1.02,.91v.14h-6.32v-.14c0-.52-.36-.91-.88-.91h-2.74c-.52,0-1.02,.39-1.02,.91v3.58c0,.52,.5,.98,1.02,.98h2.74c.52,0,.88-.46,.88-.98v-.07h6.32v.07Zm.84-.11v-3.48c0-.06,.12-.07,.17-.07h2.74c.06,0,.04,.01,.04,.07v3.58c0,.06,.02,.14-.04,.14h-2.74c-.06,0-.17-.08-.17-.14v-.11Zm-8.05,.25h-2.74c-.06,0-.17-.08-.17-.14v-3.58c0-.06,.12-.07,.17-.07h2.74c.06,0,.04,.01,.04,.07v3.58c0,.06,.02,.14-.04,.14Zm1.93-1.05h-1.05v-1.69h1.05v1.69Zm3.79,0h-3.37v-1.69h3.37v1.69Zm.42,0v-1.69h1.05v1.69h-1.05Z"/><path class="cls-3" d="M138.13,93h-2.74c-.52,0-1.02,.39-1.02,.91v.14h-6.32v-.14c0-.52-.36-.91-.88-.91h-2.74c-.52,0-1.02,.39-1.02,.91v3.58c0,.52,.5,.98,1.02,.98h2.74c.52,0,.88-.46,.88-.98v-.07h6.32v.07c0,.52,.5,.98,1.02,.98h2.74c.52,0,.88-.46,.88-.98v-3.58c0-.52-.36-.91-.88-.91Zm-10.96,4.64h-2.74c-.06,0-.17-.08-.17-.14v-3.58c0-.06,.12-.07,.17-.07h2.74c.06,0,.04,.01,.04,.07v3.58c0,.06,.02,.14-.04,.14Zm1.93-1.05h-1.05v-1.69h1.05v1.69Zm3.79,0h-3.37v-1.69h3.37v1.69Zm1.48,0h-1.05v-1.69h1.05v1.69Zm3.76,1.05h-2.74c-.06,0-.17-.08-.17-.14v-3.58c0-.06,.12-.07,.17-.07h2.74c.06,0,.04,.01,.04,.07v3.58c0,.06,.02,.14-.04,.14Z"/></g></g><g class="cls-5"><g><path class="cls-2" d="M108.54,110.14h3.44c.99,0,1.78-.8,1.78-1.78v-3h-.64v3c0,.64-.51,1.15-1.15,1.15h-12.36c-.64,0-1.15-.51-1.15-1.15v-3h-.64v3c0,.99,.8,1.78,1.78,1.78h3.44c-3.12,1.12-5.39,4.14-5.39,7.65v.32h16.25v-.32c0-3.51-2.26-6.53-5.39-7.65Zm-10.23,7.33c.16-3.98,3.47-7.17,7.49-7.17s7.33,3.19,7.49,7.17h-14.98Z"/><path class="cls-2" d="M109.4,111.83l-3.15,2.9c-.13-.1-.29-.13-.45-.13-.54,0-.96,.41-.96,.96s.41,.96,.96,.96,.96-.41,.96-.96c0-.16-.03-.32-.13-.45l2.9-3.15-.13-.13Z"/></g></g><g class="cls-5"><g id="b-14"><g id="c-14"><g><path class="cls-3" d="M39.06,148.97c-.28,0-.58-.06-.89-.17-.41-.15-.7-.33-.73-.36-.17-.11-.25-.32-.19-.52,.01-.04,.11-.36,.32-.73,.31-.54,.71-.9,1.16-1.06,.45-.16,.98-.14,1.56,.06,.41,.14,.71,.32,.72,.33,.18,.11,.26,.33,.2,.53-.02,.06-.42,1.36-1.46,1.78h0c-.21,.09-.45,.13-.7,.13h0Zm-.77-1.12c.32,.14,.77,.27,1.12,.13h0c.35-.14,.61-.52,.77-.83-.33-.13-.78-.25-1.13-.13-.35,.12-.6,.51-.76,.83h0Z"/><path class="cls-3" d="M36,159.79c-.47,0-.96-.19-1.46-.56-1.47-1.11-2.71-3.72-2.91-5.37-.28-2.32,1.18-4.48,3.25-4.83,.81-.16,1.72,.02,2.51,.51l.02,.02c.34,.24,.82,.23,1.21,0,.73-.48,1.65-.67,2.47-.51,2.13,.34,3.58,2.51,3.25,4.83-.2,1.65-1.44,4.26-2.91,5.36-.59,.45-1.18,.63-1.74,.53h-.02c-.33-.07-.63-.2-.87-.38-.48-.33-1.15-.33-1.63,0-.24,.18-.54,.31-.87,.38h-.02c-.1,.02-.19,.03-.29,.03h0Zm3.86-.95c.3,.05,.64-.07,1.02-.36,1.24-.94,2.37-3.27,2.54-4.73h0c.26-1.84-.85-3.53-2.48-3.79h-.02c-.58-.12-1.25,.02-1.78,.37h0c-.7,.45-1.59,.45-2.24,0-.58-.36-1.25-.49-1.83-.38h-.02c-1.59,.26-2.7,1.96-2.48,3.79,.17,1.46,1.3,3.8,2.54,4.73,.38,.28,.72,.4,1.02,.36,.19-.04,.37-.11,.5-.21h.01c.8-.56,1.91-.56,2.71-.01h.01c.13,.11,.3,.18,.5,.22h0Z"/><path class="cls-3" d="M38,150.66c-.26,0-.47-.21-.47-.47,0-1.26-.6-2.45-1.59-3.19l-.2-.15c-.21-.16-.25-.45-.09-.66,.16-.21,.45-.25,.66-.09l.2,.15c1.23,.91,1.97,2.38,1.97,3.94,0,.26-.21,.47-.47,.47h0Z"/></g></g></g></g><g class="cls-5"><g id="b-15"><g id="c-15"><g><path class="cls-3" d="M64.14,147.82c-.21,.21-.21,.57,0,.82,.21,.21,.57,.21,.82,0,.21-.21,.21-.57,0-.82-.21-.21-.57-.21-.82,0Zm2.11-.41l-1.6-1.6c-.46-.41-1.18-.46-1.65,0l-11.38,11.38c-.46,.46-.46,1.18,0,1.65l1.6,1.6c.21,.21,.52,.36,.82,.36s.62-.1,.82-.36l11.38-11.38c.21-.21,.36-.52,.36-.82s-.15-.62-.36-.82Zm-.57,1.13l-11.33,11.33c-.15,.15-.41,.15-.57,0l-1.6-1.6c-.15-.15-.15-.41,0-.57l.88-.88,.52,.52c.05,.05,.15,.1,.26,.1s.21-.05,.26-.1c.15-.15,.15-.41,0-.57l-.52-.52,1.49-1.49,.52,.52c.05,.05,.15,.1,.26,.1s.21-.05,.26-.1c.15-.15,.15-.41,0-.57l-.52-.52,1.49-1.49,.52,.52c.05,.05,.15,.1,.26,.1s.21-.05,.26-.1c.15-.15,.15-.41,0-.57l-.52-.52,1.49-1.49,.52,.52c.05,.05,.15,.1,.26,.1s.21-.05,.26-.1c.15-.15,.15-.41,0-.57l-.52-.52,1.49-1.49,.52,.52c.05,.05,.15,.1,.26,.1s.21-.05,.26-.1c.15-.15,.15-.41,0-.57l-.52-.52,1.8-1.8c.05-.05,.15-.1,.26-.1s.21,.05,.26,.1l1.75,1.75c.05,.05,.1,.15,.1,.26s0,.21-.1,.31h0Z"/><path class="cls-3" d="M54.05,160.85c-.3,0-.63-.14-.86-.37l-1.6-1.6c-.48-.48-.48-1.23,0-1.71l11.38-11.38c.45-.45,1.2-.45,1.71,0l1.6,1.6c.23,.23,.37,.56,.37,.86s-.14,.63-.37,.86l-11.38,11.38c-.19,.24-.5,.37-.86,.37h0Zm9.77-15.31c-.28,0-.56,.1-.77,.31l-11.38,11.38c-.44,.44-.44,1.14,0,1.58l1.6,1.6c.21,.21,.52,.35,.79,.35,.33,0,.61-.12,.79-.34l11.38-11.39c.21-.21,.35-.52,.35-.79s-.13-.58-.35-.79l-1.6-1.6c-.23-.21-.53-.31-.81-.31h0Zm-9.74,14.5c-.12,0-.23-.05-.32-.13l-1.6-1.6c-.08-.08-.13-.2-.13-.32s.05-.23,.13-.32l.91-.91,.55,.55s.14,.09,.23,.09,.18-.04,.23-.09c.14-.14,.14-.37,0-.5l-.55-.55,1.56-1.56,.55,.55s.14,.09,.23,.09,.18-.04,.23-.09c.14-.14,.14-.37,0-.5l-.55-.55,1.56-1.56,.55,.55s.14,.09,.23,.09,.18-.04,.23-.09c.14-.14,.14-.37,0-.5l-.55-.55,1.56-1.56,.55,.55s.14,.09,.23,.09,.18-.04,.23-.09c.14-.14,.14-.37,0-.5l-.55-.55,1.56-1.56,.55,.55s.14,.09,.23,.09,.18-.04,.23-.09c.14-.14,.14-.37,0-.5l-.55-.55,1.83-1.83c.06-.06,.17-.12,.29-.12s.23,.06,.29,.12l1.75,1.75c.06,.06,.12,.17,.12,.29,0,.11,0,.22-.12,.34l-11.33,11.32c-.08,.08-.2,.13-.32,.13Zm-1-3.13l-.84,.84c-.07,.07-.1,.15-.1,.25s.04,.19,.1,.25l1.6,1.6c.07,.07,.15,.1,.25,.1s.19-.04,.25-.1l11.33-11.33c.09-.09,.09-.18,.09-.28,0-.09-.04-.18-.09-.23l-1.75-1.75s-.14-.09-.23-.09-.18,.04-.23,.09l-1.77,1.77,.48,.48c.17,.17,.17,.46,0,.63-.06,.06-.17,.12-.29,.12s-.23-.06-.29-.12l-.48-.48-1.43,1.43,.48,.48c.17,.17,.17,.46,0,.63-.06,.06-.17,.12-.29,.12s-.23-.06-.29-.12l-.48-.48-1.43,1.43,.48,.48c.17,.17,.17,.46,0,.63-.06,.06-.17,.12-.29,.12s-.23-.06-.29-.12l-.48-.48-1.43,1.43,.48,.48c.17,.17,.17,.46,0,.63-.06,.06-.17,.12-.29,.12s-.23-.06-.29-.12l-.48-.48-1.43,1.43,.48,.48c.17,.17,.17,.46,0,.63-.06,.06-.17,.12-.29,.12s-.23-.06-.29-.12l-.48-.48h0Zm11.46-8.05c-.16,0-.31-.06-.42-.17-.22-.28-.22-.67,0-.89h0c.27-.22,.66-.22,.89,0,.22,.28,.22,.67,0,.89-.14,.11-.31,.17-.46,.17h0Zm-.36-.99c-.19,.19-.19,.52,0,.76,.19,.19,.52,.18,.76,0,.19-.19,.18-.52,0-.76-.19-.19-.52-.18-.76,0h0Z"/></g></g></g></g><g class="cls-5"><g id="b-16"><g id="c-16"><path id="d-4" class="cls-4" d="M16.87,154.21h-6.75v3.9c0,.93-.75,1.68-1.67,1.68s-1.67-.75-1.67-1.68v-.65c-.17,.06-.36,.1-.56,.1-.93,0-1.67-.75-1.67-1.68v-1.67H2.3v-1.12h2.23v-1.67c0-.93,.75-1.68,1.67-1.68,.2,0,.38,.03,.56,.09h0v-.65c0-.93,.75-1.68,1.67-1.68s1.67,.75,1.67,1.68v3.9h6.75v-3.9c0-.93,.75-1.68,1.67-1.68s1.67,.75,1.67,1.68v.65c.17-.06,.36-.1,.56-.1,.93,0,1.67,.75,1.67,1.68v1.67h2.23v1.12h-2.23v1.67c0,.93-.75,1.68-1.67,1.68-.2,0-.38-.03-.56-.09v.65c0,.93-.75,1.68-1.67,1.68s-1.67-.75-1.67-1.68v-3.9h0Zm3.91-3.35c-.31,0-.56,.24-.56,.56v4.47c0,.31,.26,.56,.56,.56s.56-.24,.56-.56v-4.47c0-.31-.26-.56-.56-.56h0Zm-14.57,0c-.31,0-.56,.24-.56,.56v4.47c0,.31,.26,.56,.56,.56s.56-.24,.56-.56v-4.47c0-.31-.26-.56-.56-.56h0Zm12.33-2.23c-.31,0-.56,.25-.56,.57v8.91c0,.31,.26,.57,.56,.57s.56-.25,.56-.57v-8.91c0-.31-.26-.57-.56-.57h0Zm-10.1,0c-.31,0-.56,.25-.56,.57v8.91c0,.31,.26,.57,.56,.57s.56-.25,.56-.57v-8.91c0-.31-.26-.57-.56-.57h0Z"/></g></g></g><g class="cls-5"><g id="b-17"><g id="c-17"><g><path class="cls-3" d="M18.4,105.36h-1.94c-.22,0-.42,.19-.42,.42s.19,.42,.42,.42h.94l-.97,.94-.69-.69c-.17-.17-.42-.17-.58,0s-.17,.42,0,.58l.69,.69-.42,.42c-1.27-1.05-3.02-1.36-4.57-.75-.22,.08-.33,.33-.25,.53,.08,.22,.33,.33,.53,.25,1.38-.53,2.94-.19,3.99,.86,.36,.36,.64,.78,.83,1.25,.06,.17,.22,.25,.39,.25,.06,0,.11,0,.17-.03,.22-.08,.3-.33,.22-.53-.17-.44-.42-.86-.72-1.22l.42-.42,.69,.69c.08,.08,.19,.11,.3,.11s.22-.03,.3-.11c.17-.17,.17-.42,0-.58l-.69-.69,.94-.94v.94c0,.22,.19,.42,.42,.42s.42-.19,.42-.42v-1.94c0-.06,0-.11-.03-.14h0c-.06-.11-.11-.19-.22-.22h0c-.06-.08-.11-.08-.17-.08h0Z"/><path class="cls-3" d="M15.77,114.86c.53-.53,.94-1.22,1.16-1.94,.06-.22-.06-.44-.28-.53-.22-.06-.44,.06-.53,.28-.17,.58-.5,1.14-.94,1.58-.69,.69-1.63,1.11-2.63,1.11s-1.94-.39-2.63-1.11c-1.22-1.22-1.44-3.07-.58-4.54,.11-.19,.06-.44-.14-.58-.19-.11-.44-.06-.58,.14-1.05,1.8-.78,4.07,.69,5.57,.86,.86,2.02,1.33,3.24,1.33s2.33-.42,3.21-1.3h0Z"/><path class="cls-3" d="M22.66,109.57c-.06-.11-.11-.19-.22-.22h0c-.06-.03-.11-.03-.14-.03h-1.99c-.22,0-.42,.19-.42,.42s.19,.42,.42,.42h.97l-1.94,1.94c-.83-.69-1.86-1.05-2.94-1.05-1.22,0-2.38,.47-3.24,1.33-.53,.53-.94,1.22-1.16,1.94-.06,.22,.06,.44,.28,.53,.22,.06,.44-.06,.53-.28,.17-.58,.5-1.14,.94-1.58,.69-.69,1.63-1.11,2.63-1.11s1.94,.39,2.63,1.11c1.47,1.47,1.47,3.82,0,5.29-.69,.69-1.63,1.11-2.63,1.11s-1.94-.39-2.63-1.11c-.36-.36-.64-.78-.83-1.25-.08-.22-.33-.3-.53-.22-.22,.08-.3,.33-.22,.53,.22,.58,.58,1.08,1.02,1.52,.86,.86,2.02,1.33,3.24,1.33s2.38-.47,3.24-1.33c1.69-1.69,1.77-4.35,.28-6.15l1.94-1.94v.94c0,.22,.19,.42,.42,.42s.42-.19,.42-.42v-1.99c-.03-.06-.03-.08-.06-.14h0Z"/><path class="cls-3" d="M8.46,114.94c-.44,.19-.94,.3-1.44,.3-2.05,0-3.74-1.69-3.74-3.74s1.66-3.74,3.74-3.74,3.74,1.69,3.74,3.74c0,.64-.17,1.27-.47,1.8-.11,.19-.03,.44,.17,.55,.19,.11,.44,.03,.55-.17,.39-.66,.58-1.44,.58-2.22,0-2.49-2.05-4.54-4.57-4.54s-4.57,2.05-4.57,4.57c0,2.38,1.83,4.35,4.15,4.54v1.99h-.97c-.22,0-.42,.19-.42,.42s.19,.42,.42,.42h.97v.94c0,.22,.19,.42,.42,.42s.42-.19,.42-.42v-.94h.97c.22,0,.42-.19,.42-.42s-.19-.42-.42-.42h-.97v-1.99c.47-.06,.91-.17,1.36-.33,.22-.08,.3-.33,.22-.55-.08-.19-.33-.3-.55-.22h0Z"/></g></g></g></g><g class="cls-5"><g id="b-18"><g id="c-18"><g><path class="cls-3" d="M42.48,89.65c-.22,.06-.33,.33-.22,.56,.28,.67,.39,1.39,.39,2.11,0,3.34-2.72,6.01-6.01,6.01s-6.01-2.67-6.01-6.01,2.67-6.01,6.01-6.01c.61,0,1.28,.11,1.89,.28,.22,.06,.45-.06,.5-.28s-.06-.45-.28-.5c-.67-.22-1.39-.33-2.11-.33-3.78,0-6.84,3.06-6.84,6.84s3.06,6.84,6.84,6.84,6.84-3.06,6.84-6.84c0-.83-.17-1.67-.45-2.45-.06-.17-.33-.28-.56-.22Zm-5.84,1.28c.22,0,.45-.17,.45-.45s-.17-.45-.45-.45c-1.22,0-2.22,1-2.22,2.22s1,2.22,2.22,2.22,2.22-1,2.22-2.22c0-.22-.17-.45-.45-.45s-.39,.28-.39,.5c0,.78-.61,1.39-1.39,1.39s-1.39-.61-1.39-1.39,.61-1.39,1.39-1.39h0Zm2.06-2.17c.11-.22,0-.45-.22-.56-.56-.28-1.22-.39-1.84-.39-2.5,0-4.56,2-4.56,4.51s2.06,4.56,4.56,4.56,4.56-2.06,4.56-4.56c0-.67-.11-1.28-.39-1.84-.11-.22-.33-.33-.56-.22s-.28,.33-.22,.56c.22,.5,.33,1,.33,1.5,0,2.06-1.67,3.73-3.73,3.73s-3.73-1.67-3.73-3.73,1.67-3.73,3.73-3.73c.56,0,1.06,.11,1.5,.33,.22,.11,.45,0,.56-.17h0Zm7.56-2.78c-.06-.17-.17-.28-.33-.28l-2.28-.39-.39-2.28c0-.17-.11-.28-.28-.33-.17-.06-.33,0-.45,.11l-2.72,2.72c-.11,.11-.17,.22-.11,.39l.45,2.34-3.5,3.5h-.06c-.33,0-.61,.28-.61,.61s.28,.61,.61,.61,.61-.28,.61-.61h0l3.56-3.56,2.28,.45h.06c.11,0,.22-.06,.28-.11l2.72-2.72c.17-.11,.22-.28,.17-.45Zm-5.67-.06l2-2,.28,1.56-1.95,1.95-.33-1.5Zm2.45,2.45l-1.5-.28,1.95-1.95,1.5,.28-1.95,1.95Z"/><path class="cls-3" d="M36.64,99.2c-3.8,0-6.89-3.09-6.89-6.89s3.09-6.89,6.89-6.89c.73,0,1.47,.12,2.13,.34,.12,.03,.21,.1,.27,.21,.06,.1,.07,.22,.04,.35-.06,.24-.3,.38-.56,.31-.66-.18-1.31-.28-1.88-.28-1.6,0-3.1,.62-4.22,1.74-1.12,1.12-1.74,2.62-1.74,4.22,0,3.29,2.67,5.96,5.96,5.96s5.96-2.67,5.96-5.96c0-.78-.13-1.48-.39-2.1-.06-.12-.06-.27,0-.4,.05-.11,.15-.19,.26-.22h0c.24-.06,.55,.06,.61,.25,.3,.83,.45,1.66,.45,2.46,0,3.8-3.09,6.89-6.89,6.89h0Zm0-13.68c-3.75,0-6.8,3.05-6.8,6.8s3.05,6.8,6.8,6.8,6.8-3.05,6.8-6.8c0-.79-.15-1.61-.44-2.43-.05-.14-.31-.24-.5-.19h0c-.09,.02-.16,.08-.2,.17-.05,.1-.04,.22,0,.32,.26,.63,.39,1.35,.39,2.13,0,3.34-2.72,6.05-6.05,6.05s-6.05-2.71-6.05-6.05c0-1.63,.63-3.15,1.77-4.29,1.14-1.14,2.66-1.77,4.29-1.77,.57,0,1.23,.1,1.9,.28,.21,.05,.4-.05,.44-.25,.02-.1,.01-.2-.03-.28-.04-.08-.12-.14-.21-.17-.65-.22-1.38-.33-2.1-.33h0Zm0,11.4c-2.54,0-4.61-2.07-4.61-4.61s2.07-4.55,4.61-4.55c.69,0,1.35,.14,1.86,.39,.12,.06,.21,.15,.26,.26,.05,.12,.04,.24-.02,.36h0c-.12,.18-.36,.31-.61,.19-.44-.22-.93-.33-1.48-.33-2.03,0-3.68,1.65-3.68,3.68s1.65,3.68,3.68,3.68,3.68-1.65,3.68-3.68c0-.49-.11-.99-.33-1.48-.07-.28,.02-.5,.24-.61,.12-.06,.24-.06,.36-.02,.11,.05,.2,.14,.26,.26,.26,.53,.39,1.14,.39,1.86,0,2.54-2.07,4.61-4.61,4.61h0Zm0-9.07c-2.49,0-4.52,2-4.52,4.46s2.03,4.52,4.52,4.52,4.52-2.03,4.52-4.52c0-.7-.13-1.3-.38-1.82-.05-.1-.13-.18-.21-.21-.09-.04-.19-.03-.28,.01-.26,.13-.23,.4-.2,.5,.22,.5,.34,1.01,.34,1.51,0,2.08-1.69,3.77-3.77,3.77s-3.77-1.69-3.77-3.77,1.69-3.77,3.77-3.77c.56,0,1.07,.11,1.52,.34,.2,.1,.4,0,.5-.15,.11-.22-.03-.4-.2-.49-.5-.25-1.14-.38-1.82-.38Zm0,6.67c-1.25,0-2.27-1.02-2.27-2.27s1.02-2.27,2.27-2.27c.3,0,.49,.19,.49,.49s-.25,.49-.49,.49c-.75,0-1.34,.59-1.34,1.34s.59,1.34,1.34,1.34,1.34-.59,1.34-1.34c0-.26,.14-.55,.43-.55s.49,.25,.49,.49c0,1.25-1.02,2.27-2.27,2.27h0Zm0-4.45c-1.2,0-2.18,.98-2.18,2.18s.98,2.18,2.18,2.18,2.18-.98,2.18-2.18c0-.19-.14-.4-.4-.4s-.34,.3-.34,.46c0,.81-.63,1.44-1.44,1.44s-1.44-.63-1.44-1.44,.63-1.44,1.44-1.44c.19,0,.4-.14,.4-.4s-.15-.4-.4-.4h0Zm-.06,2.95c-.36,0-.66-.3-.66-.66s.3-.66,.66-.66h.04l3.47-3.47-.44-2.31c-.07-.2,.02-.33,.12-.43l2.72-2.72c.13-.13,.32-.18,.49-.12,.2,.07,.31,.2,.31,.38l.38,2.24,2.25,.38h0c.17,0,.3,.11,.37,.31h0c.06,.19,0,.38-.18,.5l-2.72,2.72c-.06,.06-.18,.12-.31,.12h-.06l-2.27-.44-3.53,3.53c-.01,.35-.31,.64-.66,.64h0Zm0-1.22c-.31,0-.57,.26-.57,.57s.26,.57,.57,.57,.57-.26,.57-.57v-.02l3.59-3.59,2.3,.45h.05c.1,0,.2-.05,.25-.1l2.72-2.72c.15-.1,.21-.25,.16-.4h0c-.04-.11-.12-.25-.29-.25l-2.32-.4-.39-2.31c0-.18-.14-.26-.25-.3-.14-.05-.29,0-.4,.1l-2.72,2.72c-.1,.1-.15,.19-.1,.34l.45,2.37-3.53,3.53h-.07Zm6.47-3.39l-1.61-.3,2.02-2.02,1.61,.3-2.02,2.02h0Zm-1.42-.36l1.39,.26,1.87-1.87-1.39-.26-1.87,1.87Zm-.73-.55l-.36-1.61,2.08-2.08,.3,1.67-2.02,2.02h0Zm-.26-1.58l.31,1.4,1.87-1.87-.26-1.45-1.92,1.92Z"/></g></g></g></g><g class="cls-5"><path class="cls-3" d="M36.17,119.6c-3.4,0-6.16-2.76-6.16-6.16s2.76-6.16,6.16-6.16,6.16,2.76,6.16,6.16-2.76,6.16-6.16,6.16Zm0-1.23c2.72,0,4.93-2.21,4.93-4.93s-2.21-4.93-4.93-4.93-4.93,2.21-4.93,4.93,2.21,4.93,4.93,4.93Zm-2.18-2.75c-.24-.24-.24-.63,0-.87s.63-.24,.87,0c.72,.72,1.89,.72,2.61,0,.24-.24,.63-.24,.87,0s.24,.63,0,.87c-1.2,1.2-3.15,1.21-4.36,0h0Zm.33-2.8c-.34,0-.62-.28-.62-.62s.28-.62,.62-.62,.62,.28,.62,.62-.28,.62-.62,.62Zm3.7,0c-.34,0-.62-.28-.62-.62s.28-.62,.62-.62,.62,.28,.62,.62-.28,.62-.62,.62Z"/></g><g class="cls-5"><g id="_16-heart-4"><path class="cls-1" d="M15.92,127.91c-1.44-1.49-3.82-1.52-5.31-.08-.03,.03-.05,.05-.08,.08-1.44-1.49-3.82-1.52-5.31-.08-.03,.03-.05,.05-.08,.08-1.49,1.53-1.49,3.97,0,5.5l5.39,5.49,5.39-5.5c1.49-1.53,1.49-3.96,0-5.49Z"/><path class="cls-1" d="M14.87,130.67c0-.96-.78-1.73-1.73-1.73"/></g></g><g class="cls-5"><g><path class="cls-3" d="M58.36,129.2c-1.5,0-2.73,1.23-2.73,2.73s1.23,2.73,2.73,2.73,2.73-1.23,2.73-2.73-1.23-2.73-2.73-2.73Zm0,4.54c-1,0-1.82-.82-1.82-1.82s.82-1.82,1.82-1.82,1.82,.82,1.82,1.82-.82,1.82-1.82,1.82Z"/><path class="cls-3" d="M58.91,131.06c-.23,.14-.27,.41-.18,.64,.09,.05,.09,.14,.09,.23,0,.27-.18,.45-.45,.45s-.45,.18-.45,.45,.18,.45,.45,.45c.77,0,1.36-.59,1.36-1.36,0-.23-.05-.5-.18-.68-.14-.23-.41-.27-.64-.18Z"/><path class="cls-3" d="M64.09,131.06c-.64-2.68-3-4.59-5.77-4.59-3.23,0-5.86,2.64-5.86,5.86,0,2,1.05,3.86,2.68,4.95,.09,1.05,.95,1.91,2.04,1.91,.41,0,.82-.14,1.14-.36,.59,.23,1.18,.36,1.82,.36,2.77,0,5-2.23,5-5,.05-1.14-.36-2.23-1.05-3.14Zm-3.91,7.23c-.59,0-1.18-.14-1.73-.36-.05-.05-.14-.05-.18-.05-.09,0-.23,.05-.32,.14-.23,.18-.5,.32-.77,.32-.64,0-1.14-.5-1.14-1.14v-.09c0-.18-.09-.32-.23-.41-1.55-.91-2.45-2.54-2.45-4.27,0-2.82,2.23-5.04,4.95-5.04,2.36,0,4.41,1.68,4.86,3.95,0,.09,.05,.14,.09,.18,.64,.73,.95,1.68,.95,2.64,.05,2.32-1.77,4.14-4.04,4.14Z"/></g></g><g class="cls-5"><path class="cls-3" d="M52.9,93.6s.08,0,.12,0c.32-.05,.53-.35,.47-.67v-.03c-.07-.34-.1-.69-.1-1.04,0-1.65,.76-3.2,2.06-4.22,.08,.31,.29,.57,.58,.71l.14,.06c.29,.13,.6,.2,.92,.2h0c.13,.07,.24,.18,.33,.3,.06,.28,.09,.57,.12,.85,.01,.25,.05,.5,.1,.75,0,.1,.03,.2,.05,.3,.02,.22,.18,.41,.39,.47,.05,0,.1,0,.14,0,.33,0,.58-.33,.94-.79,.07-.09,.16-.21,.2-.25l.09-.05c.35-.15,.61-.46,.71-.82,.02-.24,.02-.48,0-.72v-.63c.16-.13,.34-.24,.52-.35l1.03-.27c1.06,.7,1.83,1.75,2.18,2.96,.09,.32,.42,.51,.74,.41,.32-.09,.51-.42,.41-.74-1-3.47-4.62-5.48-8.1-4.48-2.81,.81-4.75,3.39-4.74,6.31,0,.42,.04,.83,.12,1.25,.04,.29,.29,.5,.58,.49Zm7.44-6.83l-.1,.05c-.86,.49-.97,.74-1,.83-.08,.35-.1,.7-.06,1.05v.5c-.08,.06-.16,.12-.25,.17l-.18,.12c-.08,.06-.15,.13-.21,.21-.03-.36-.08-.71-.16-1.07-.01-.06-.03-.12-.06-.17-.09-.14-.58-.83-1.2-.83-.2,0-.4-.04-.58-.13l-.12-.05c-.06-.11-.1-.23-.13-.36,.75-.38,1.58-.58,2.43-.58,.55,0,1.1,.07,1.62,.23h0Zm6.91,3.16c-.1-.45-.49-.78-1.16-.97-.26-.08-.54,.07-.62,.34-.08,.26,.07,.54,.34,.62,.41,.12,.47,.24,.47,.24,0,.41-2.12,2-7.16,3.17s-7.67,.69-7.82,.31c0,0,0-.17,.41-.5,.21-.17,.24-.48,.07-.68h0c-.17-.22-.48-.25-.69-.08h0c-.58,.51-.85,1.01-.74,1.49,.17,.72,1.04,1.11,2.68,1.16v.03c1.75,3.17,5.73,4.32,8.89,2.57,1.98-1.09,3.26-3.13,3.38-5.4,1.5-.8,2.15-1.55,1.97-2.29Zm-8.75,7.29l.47-.38,.82-.1c.16-.02,.31-.12,.38-.26l.18-.34,.18,.36-.12,.47c-.54,.17-1.1,.26-1.66,.26l-.25-.02Zm3.04-.78c0-.08-.02-.15-.05-.23l-.68-1.38c-.12-.24-.42-.34-.66-.22-.1,.05-.17,.12-.22,.22l-.52,.97-.71,.09c-.1,0-.19,.05-.26,.11l-1.08,.9s-.09,.09-.12,.14c-1.14-.33-2.13-1.03-2.83-1.99,1.67-.11,3.33-.36,4.96-.76,1.58-.36,3.13-.85,4.63-1.47-.27,1.51-1.16,2.83-2.47,3.63Z"/></g><g class="cls-5"><g><path class="cls-3" d="M58.96,111c0,.52,.5,.98,1.02,.98h2.74c.52,0,.88-.46,.88-.98v-3.58c0-.52-.36-.91-.88-.91h-2.74c-.52,0-1.02,.39-1.02,.91v.14h-6.32v-.14c0-.52-.36-.91-.88-.91h-2.74c-.52,0-1.02,.39-1.02,.91v3.58c0,.52,.5,.98,1.02,.98h2.74c.52,0,.88-.46,.88-.98v-.07h6.32v.07Zm.84-.11v-3.48c0-.06,.12-.07,.17-.07h2.74c.06,0,.04,.01,.04,.07v3.58c0,.06,.02,.14-.04,.14h-2.74c-.06,0-.17-.08-.17-.14v-.11Zm-8.05,.25h-2.74c-.06,0-.17-.08-.17-.14v-3.58c0-.06,.12-.07,.17-.07h2.74c.06,0,.04,.01,.04,.07v3.58c0,.06,.02,.14-.04,.14Zm1.93-1.05h-1.05v-1.69h1.05v1.69Zm3.79,0h-3.37v-1.69h3.37v1.69Zm.42,0v-1.69h1.05v1.69h-1.05Z"/><path class="cls-3" d="M68.2,114.1h-2.74c-.52,0-1.02,.39-1.02,.91v.14h-6.32v-.14c0-.52-.36-.91-.88-.91h-2.74c-.52,0-1.02,.39-1.02,.91v3.58c0,.52,.5,.98,1.02,.98h2.74c.52,0,.88-.46,.88-.98v-.07h6.32v.07c0,.52,.5,.98,1.02,.98h2.74c.52,0,.88-.46,.88-.98v-3.58c0-.52-.36-.91-.88-.91Zm-10.96,4.64h-2.74c-.06,0-.17-.08-.17-.14v-3.58c0-.06,.12-.07,.17-.07h2.74c.06,0,.04,.01,.04,.07v3.58c0,.06,.02,.14-.04,.14Zm1.93-1.05h-1.05v-1.69h1.05v1.69Zm3.79,0h-3.37v-1.69h3.37v1.69Zm1.48,0h-1.05v-1.69h1.05v1.69Zm3.76,1.05h-2.74c-.06,0-.17-.08-.17-.14v-3.58c0-.06,.12-.07,.17-.07h2.74c.06,0,.04,.01,.04,.07v3.58c0,.06,.02,.14-.04,.14Z"/></g></g><g class="cls-5"><g><path class="cls-2" d="M37.22,131.7h3.44c.99,0,1.78-.8,1.78-1.78v-3h-.64v3c0,.64-.51,1.15-1.15,1.15h-12.36c-.64,0-1.15-.51-1.15-1.15v-3h-.64v3c0,.99,.8,1.78,1.78,1.78h3.44c-3.12,1.12-5.39,4.14-5.39,7.65v.32h16.25v-.32c0-3.51-2.26-6.53-5.39-7.65Zm-10.23,7.33c.16-3.98,3.47-7.17,7.49-7.17s7.33,3.19,7.49,7.17h-14.98Z"/><path class="cls-2" d="M38.08,133.38l-3.15,2.9c-.13-.1-.29-.13-.45-.13-.54,0-.96,.41-.96,.96s.41,.96,.96,.96,.96-.41,.96-.96c0-.16-.03-.32-.13-.45l2.9-3.15-.13-.13Z"/></g></g><g class="cls-5"><path class="cls-3" d="M25.22,90.24h-8.04c-.28,0,0-.26,0-.26h0c.13-.12,.23-.23,.3-.31,1.28-1.69,.19-4.22,.02-4.58-.6-1.06-1.33-1.64-2.06-1.93-.06-.02-.11-.04-.18-.07-.33-.12-.71-.24-1.14-.33-1.86-.28-3.63,.59-3.64,.6-1.61,.92-5.72,3.34-7.55,5.09-.09,.08-.18,.17-.26,.26-.07,.07-.13,.14-.19,.21-.02,.02-.03,.04-.05,.05-.05,.07-.11,.13-.15,.2h.01c-.36,.49-.65,1.07-.83,1.78-.58,1.83,.04,5.92,3.49,7.22,.15,.05,.82,.25,1.82,.25h9.44c.33-.01,1.11-.12,1.86-.79h0l7.02-6.28,.2-.18c1-.89-.07-.93-.07-.93Zm-14.66-5.41s3.41-1.97,5.23,.33c.24,.33,.49,.73,.68,1.17,.02,.06,.55,1.95-.33,2.92,0,0-.02,.02-.02,.03-.02,.02-.04,.04-.06,.06-.08,.07-.16,.14-.25,.21l-3.79,2.83c.09-1.65-.59-3.3-.93-3.84-.88-1.27-2.11-1.69-2.87-1.83-.24-.04-.68-.05-.68-.05l3.01-1.83Zm12.26,7.15l-4.94,4.49c-.77,.7-1.58,.82-1.94,.83H6.54c-.74,0-1.52-.27-1.59-.3-.23-.11-.47-.24-.72-.4-2.69-1.72-1.89-5.02-1.75-5.49v-.02l.02-.04h0c.58-1.83,1.94-3.17,4.51-3.25,.32,0,1.25,.08,2.08,.71,.2,.17,.41,.36,.61,.6,.39,.51,1.31,1.99,.89,3.71-.34,1.12-.82,1.61-1.49,2.06-.67,.45-2,.87-3.26,.1-.73-.5-1.29-1.36-1.18-2.49,.1-1.14,1.27-1.96,2.32-1.71,1.04,.24,1.66,1.81,.53,2.43-.53,.23-.85,.09-1.06-.2h0s-.3-.28-.68-.11c-.38,.17-.26,.71-.26,.72,.41,.61,1.21,1.06,2.4,.64,.27-.1,.5-.25,.68-.43h0l.04-.05s.08-.09,.11-.13c.41-.5,1.37-2.02-.16-3.74-.89-.71-3.65-1.48-4.81,1.6-.04,.1-.08,.21-.11,.32,0,.02-.01,.03-.02,.04h0c-.2,.7-.2,1.55,.22,2.5,.93,2.11,3.6,2.68,5.55,1.63,.35-.19,.67-.42,.96-.69h0l4.7-3.69s.33-.3,.83-.3h6.9c.67,0,.09,.57,0,.64Z"/></g><g class="cls-5"><g id="b-19"><g id="c-19"><g><path class="cls-3" d="M38.42,4.63c-.28,0-.58-.06-.89-.17-.41-.15-.7-.33-.73-.36-.17-.11-.25-.32-.19-.52,.01-.04,.11-.36,.32-.73,.31-.54,.71-.9,1.16-1.06,.45-.16,.98-.14,1.56,.06,.41,.14,.71,.32,.72,.33,.18,.11,.26,.33,.2,.53-.02,.06-.42,1.36-1.46,1.78h0c-.21,.09-.45,.13-.7,.13h0Zm-.77-1.12c.32,.14,.77,.27,1.12,.13h0c.35-.14,.61-.52,.77-.83-.33-.13-.78-.25-1.13-.13-.35,.12-.6,.51-.76,.83h0Z"/><path class="cls-3" d="M35.36,15.45c-.47,0-.96-.19-1.46-.56-1.47-1.11-2.71-3.72-2.91-5.37-.28-2.32,1.18-4.48,3.25-4.83,.81-.16,1.72,.02,2.51,.51l.02,.02c.34,.24,.82,.23,1.21,0,.73-.48,1.65-.67,2.47-.51,2.13,.34,3.58,2.51,3.25,4.83-.2,1.65-1.44,4.26-2.91,5.36-.59,.45-1.18,.63-1.74,.53h-.02c-.33-.07-.63-.2-.87-.38-.48-.33-1.15-.33-1.63,0-.24,.18-.54,.31-.87,.38h-.02c-.1,.02-.19,.03-.29,.03h0Zm3.86-.95c.3,.05,.64-.07,1.02-.36,1.24-.94,2.37-3.27,2.54-4.73h0c.26-1.84-.85-3.53-2.48-3.79h-.02c-.58-.12-1.25,.02-1.78,.37h0c-.7,.45-1.59,.45-2.24,0-.58-.36-1.25-.49-1.83-.38h-.02c-1.59,.26-2.7,1.96-2.48,3.79,.17,1.46,1.3,3.8,2.54,4.73,.38,.28,.72,.4,1.02,.36,.19-.04,.37-.11,.5-.21h.01c.8-.56,1.91-.56,2.71-.01h.01c.13,.11,.3,.18,.5,.22h0Z"/><path class="cls-3" d="M37.35,6.32c-.26,0-.47-.21-.47-.47,0-1.26-.6-2.45-1.59-3.19l-.2-.15c-.21-.16-.25-.45-.09-.66,.16-.21,.45-.25,.66-.09l.2,.15c1.23,.91,1.97,2.38,1.97,3.94,0,.26-.21,.47-.47,.47h0Z"/></g></g></g></g><g class="cls-5"><g id="b-20"><g id="c-20"><g><path class="cls-3" d="M17.14,43.93h-1.94c-.22,0-.42,.19-.42,.42s.19,.42,.42,.42h.94l-.97,.94-.69-.69c-.17-.17-.42-.17-.58,0s-.17,.42,0,.58l.69,.69-.42,.42c-1.27-1.05-3.02-1.36-4.57-.75-.22,.08-.33,.33-.25,.53,.08,.22,.33,.33,.53,.25,1.38-.53,2.94-.19,3.99,.86,.36,.36,.64,.78,.83,1.25,.06,.17,.22,.25,.39,.25,.06,0,.11,0,.17-.03,.22-.08,.3-.33,.22-.53-.17-.44-.42-.86-.72-1.22l.42-.42,.69,.69c.08,.08,.19,.11,.3,.11s.22-.03,.3-.11c.17-.17,.17-.42,0-.58l-.69-.69,.94-.94v.94c0,.22,.19,.42,.42,.42s.42-.19,.42-.42v-1.94c0-.06,0-.11-.03-.14h0c-.06-.11-.11-.19-.22-.22h0c-.06-.08-.11-.08-.17-.08h0Z"/><path class="cls-3" d="M14.5,53.43c.53-.53,.94-1.22,1.16-1.94,.06-.22-.06-.44-.28-.53-.22-.06-.44,.06-.53,.28-.17,.58-.5,1.14-.94,1.58-.69,.69-1.63,1.11-2.63,1.11s-1.94-.39-2.63-1.11c-1.22-1.22-1.44-3.07-.58-4.54,.11-.19,.06-.44-.14-.58-.19-.11-.44-.06-.58,.14-1.05,1.8-.78,4.07,.69,5.57,.86,.86,2.02,1.33,3.24,1.33s2.33-.42,3.21-1.3h0Z"/><path class="cls-3" d="M21.4,48.14c-.06-.11-.11-.19-.22-.22h0c-.06-.03-.11-.03-.14-.03h-1.99c-.22,0-.42,.19-.42,.42s.19,.42,.42,.42h.97l-1.94,1.94c-.83-.69-1.86-1.05-2.94-1.05-1.22,0-2.38,.47-3.24,1.33-.53,.53-.94,1.22-1.16,1.94-.06,.22,.06,.44,.28,.53,.22,.06,.44-.06,.53-.28,.17-.58,.5-1.14,.94-1.58,.69-.69,1.63-1.11,2.63-1.11s1.94,.39,2.63,1.11c1.47,1.47,1.47,3.82,0,5.29-.69,.69-1.63,1.11-2.63,1.11s-1.94-.39-2.63-1.11c-.36-.36-.64-.78-.83-1.25-.08-.22-.33-.3-.53-.22-.22,.08-.3,.33-.22,.53,.22,.58,.58,1.08,1.02,1.52,.86,.86,2.02,1.33,3.24,1.33s2.38-.47,3.24-1.33c1.69-1.69,1.77-4.35,.28-6.15l1.94-1.94v.94c0,.22,.19,.42,.42,.42s.42-.19,.42-.42v-1.99c-.03-.06-.03-.08-.06-.14h0Z"/><path class="cls-3" d="M7.19,53.52c-.44,.19-.94,.3-1.44,.3-2.05,0-3.74-1.69-3.74-3.74s1.66-3.74,3.74-3.74,3.74,1.69,3.74,3.74c0,.64-.17,1.27-.47,1.8-.11,.19-.03,.44,.17,.55,.19,.11,.44,.03,.55-.17,.39-.66,.58-1.44,.58-2.22,0-2.49-2.05-4.54-4.57-4.54s-4.57,2.05-4.57,4.57c0,2.38,1.83,4.35,4.15,4.54v1.99h-.97c-.22,0-.42,.19-.42,.42s.19,.42,.42,.42h.97v.94c0,.22,.19,.42,.42,.42s.42-.19,.42-.42v-.94h.97c.22,0,.42-.19,.42-.42s-.19-.42-.42-.42h-.97v-1.99c.47-.06,.91-.17,1.36-.33,.22-.08,.3-.33,.22-.55-.08-.19-.33-.3-.55-.22h0Z"/></g></g></g></g><g class="cls-5"><g id="b-21"><g id="c-21"><g><path class="cls-3" d="M63.5,3.48c-.21,.21-.21,.57,0,.82,.21,.21,.57,.21,.82,0,.21-.21,.21-.57,0-.82-.21-.21-.57-.21-.82,0Zm2.11-.41l-1.6-1.6c-.46-.41-1.18-.46-1.65,0l-11.38,11.38c-.46,.46-.46,1.18,0,1.65l1.6,1.6c.21,.21,.52,.36,.82,.36s.62-.1,.82-.36l11.38-11.38c.21-.21,.36-.52,.36-.82s-.15-.62-.36-.82Zm-.57,1.13l-11.33,11.33c-.15,.15-.41,.15-.57,0l-1.6-1.6c-.15-.15-.15-.41,0-.57l.88-.88,.52,.52c.05,.05,.15,.1,.26,.1s.21-.05,.26-.1c.15-.15,.15-.41,0-.57l-.52-.52,1.49-1.49,.52,.52c.05,.05,.15,.1,.26,.1s.21-.05,.26-.1c.15-.15,.15-.41,0-.57l-.52-.52,1.49-1.49,.52,.52c.05,.05,.15,.1,.26,.1s.21-.05,.26-.1c.15-.15,.15-.41,0-.57l-.52-.52,1.49-1.49,.52,.52c.05,.05,.15,.1,.26,.1s.21-.05,.26-.1c.15-.15,.15-.41,0-.57l-.52-.52,1.49-1.49,.52,.52c.05,.05,.15,.1,.26,.1s.21-.05,.26-.1c.15-.15,.15-.41,0-.57l-.52-.52,1.8-1.8c.05-.05,.15-.1,.26-.1s.21,.05,.26,.1l1.75,1.75c.05,.05,.1,.15,.1,.26s0,.21-.1,.31h0Z"/><path class="cls-3" d="M53.41,16.51c-.3,0-.63-.14-.86-.37l-1.6-1.6c-.48-.48-.48-1.23,0-1.71L62.33,1.44c.45-.45,1.2-.45,1.71,0l1.6,1.6c.23,.23,.37,.56,.37,.86s-.14,.63-.37,.86l-11.38,11.38c-.19,.24-.5,.37-.86,.37h0ZM63.17,1.19c-.28,0-.56,.1-.77,.31l-11.38,11.38c-.44,.44-.44,1.14,0,1.58l1.6,1.6c.21,.21,.52,.35,.79,.35,.33,0,.61-.12,.79-.34l11.38-11.39c.21-.21,.35-.52,.35-.79s-.13-.58-.35-.79l-1.6-1.6c-.23-.21-.53-.31-.81-.31h0Zm-9.74,14.5c-.12,0-.23-.05-.32-.13l-1.6-1.6c-.08-.08-.13-.2-.13-.32s.05-.23,.13-.32l.91-.91,.55,.55s.14,.09,.23,.09,.18-.04,.23-.09c.14-.14,.14-.37,0-.5l-.55-.55,1.56-1.56,.55,.55s.14,.09,.23,.09,.18-.04,.23-.09c.14-.14,.14-.37,0-.5l-.55-.55,1.56-1.56,.55,.55s.14,.09,.23,.09,.18-.04,.23-.09c.14-.14,.14-.37,0-.5l-.55-.55,1.56-1.56,.55,.55s.14,.09,.23,.09,.18-.04,.23-.09c.14-.14,.14-.37,0-.5l-.55-.55,1.56-1.56,.55,.55s.14,.09,.23,.09,.18-.04,.23-.09c.14-.14,.14-.37,0-.5l-.55-.55,1.83-1.83c.06-.06,.17-.12,.29-.12s.23,.06,.29,.12l1.75,1.75c.06,.06,.12,.17,.12,.29,0,.11,0,.22-.12,.34l-11.33,11.32c-.08,.08-.2,.13-.32,.13Zm-1-3.13l-.84,.84c-.07,.07-.1,.15-.1,.25s.04,.19,.1,.25l1.6,1.6c.07,.07,.15,.1,.25,.1s.19-.04,.25-.1l11.33-11.33c.09-.09,.09-.18,.09-.28,0-.09-.04-.18-.09-.23l-1.75-1.75s-.14-.09-.23-.09-.18,.04-.23,.09l-1.77,1.77,.48,.48c.17,.17,.17,.46,0,.63-.06,.06-.17,.12-.29,.12s-.23-.06-.29-.12l-.48-.48-1.43,1.43,.48,.48c.17,.17,.17,.46,0,.63-.06,.06-.17,.12-.29,.12s-.23-.06-.29-.12l-.48-.48-1.43,1.43,.48,.48c.17,.17,.17,.46,0,.63-.06,.06-.17,.12-.29,.12s-.23-.06-.29-.12l-.48-.48-1.43,1.43,.48,.48c.17,.17,.17,.46,0,.63-.06,.06-.17,.12-.29,.12s-.23-.06-.29-.12l-.48-.48-1.43,1.43,.48,.48c.17,.17,.17,.46,0,.63-.06,.06-.17,.12-.29,.12s-.23-.06-.29-.12l-.48-.48h0Zm11.46-8.05c-.16,0-.31-.06-.42-.17-.22-.28-.22-.67,0-.89h0c.27-.22,.66-.22,.89,0,.22,.28,.22,.67,0,.89-.14,.11-.31,.17-.46,.17h0Zm-.36-.99c-.19,.19-.19,.52,0,.76,.19,.19,.52,.18,.76,0,.19-.19,.18-.52,0-.76-.19-.19-.52-.18-.76,0h0Z"/></g></g></g></g><g class="cls-5"><g id="b-22"><g id="c-22"><g><path class="cls-3" d="M41.22,28.22c-.22,.06-.33,.33-.22,.56,.28,.67,.39,1.39,.39,2.11,0,3.34-2.72,6.01-6.01,6.01s-6.01-2.67-6.01-6.01,2.67-6.01,6.01-6.01c.61,0,1.28,.11,1.89,.28,.22,.06,.45-.06,.5-.28s-.06-.45-.28-.5c-.67-.22-1.39-.33-2.11-.33-3.78,0-6.84,3.06-6.84,6.84s3.06,6.84,6.84,6.84,6.84-3.06,6.84-6.84c0-.83-.17-1.67-.45-2.45-.06-.17-.33-.28-.56-.22Zm-5.84,1.28c.22,0,.45-.17,.45-.45s-.17-.45-.45-.45c-1.22,0-2.22,1-2.22,2.22s1,2.22,2.22,2.22,2.22-1,2.22-2.22c0-.22-.17-.45-.45-.45s-.39,.28-.39,.5c0,.78-.61,1.39-1.39,1.39s-1.39-.61-1.39-1.39,.61-1.39,1.39-1.39h0Zm2.06-2.17c.11-.22,0-.45-.22-.56-.56-.28-1.22-.39-1.84-.39-2.5,0-4.56,2-4.56,4.51s2.06,4.56,4.56,4.56,4.56-2.06,4.56-4.56c0-.67-.11-1.28-.39-1.84-.11-.22-.33-.33-.56-.22s-.28,.33-.22,.56c.22,.5,.33,1,.33,1.5,0,2.06-1.67,3.73-3.73,3.73s-3.73-1.67-3.73-3.73,1.67-3.73,3.73-3.73c.56,0,1.06,.11,1.5,.33,.22,.11,.45,0,.56-.17h0Zm7.56-2.78c-.06-.17-.17-.28-.33-.28l-2.28-.39-.39-2.28c0-.17-.11-.28-.28-.33-.17-.06-.33,0-.45,.11l-2.72,2.72c-.11,.11-.17,.22-.11,.39l.45,2.34-3.5,3.5h-.06c-.33,0-.61,.28-.61,.61s.28,.61,.61,.61,.61-.28,.61-.61h0l3.56-3.56,2.28,.45h.06c.11,0,.22-.06,.28-.11l2.72-2.72c.17-.11,.22-.28,.17-.45Zm-5.67-.06l2-2,.28,1.56-1.95,1.95-.33-1.5Zm2.45,2.45l-1.5-.28,1.95-1.95,1.5,.28-1.95,1.95Z"/><path class="cls-3" d="M35.38,37.78c-3.8,0-6.89-3.09-6.89-6.89s3.09-6.89,6.89-6.89c.73,0,1.47,.12,2.13,.34,.12,.03,.21,.1,.27,.21,.06,.1,.07,.22,.04,.35-.06,.24-.3,.38-.56,.31-.66-.18-1.31-.28-1.88-.28-1.6,0-3.1,.62-4.22,1.74-1.12,1.12-1.74,2.62-1.74,4.22,0,3.29,2.67,5.96,5.96,5.96s5.96-2.67,5.96-5.96c0-.78-.13-1.48-.39-2.1-.06-.12-.06-.27,0-.4,.05-.11,.15-.19,.26-.22h0c.24-.06,.55,.06,.61,.25,.3,.83,.45,1.66,.45,2.46,0,3.8-3.09,6.89-6.89,6.89h0Zm0-13.68c-3.75,0-6.8,3.05-6.8,6.8s3.05,6.8,6.8,6.8,6.8-3.05,6.8-6.8c0-.79-.15-1.61-.44-2.43-.05-.14-.31-.24-.5-.19h0c-.09,.02-.16,.08-.2,.17-.05,.1-.04,.22,0,.32,.26,.63,.39,1.35,.39,2.13,0,3.34-2.72,6.05-6.05,6.05s-6.05-2.71-6.05-6.05c0-1.63,.63-3.15,1.77-4.29,1.14-1.14,2.66-1.77,4.29-1.77,.57,0,1.23,.1,1.9,.28,.21,.05,.4-.05,.44-.25,.02-.1,.01-.2-.03-.28-.04-.08-.12-.14-.21-.17-.65-.22-1.38-.33-2.1-.33h0Zm0,11.4c-2.54,0-4.61-2.07-4.61-4.61s2.07-4.55,4.61-4.55c.69,0,1.35,.14,1.86,.39,.12,.06,.21,.15,.26,.26,.05,.12,.04,.24-.02,.36h0c-.12,.18-.36,.31-.61,.19-.44-.22-.93-.33-1.48-.33-2.03,0-3.68,1.65-3.68,3.68s1.65,3.68,3.68,3.68,3.68-1.65,3.68-3.68c0-.49-.11-.99-.33-1.48-.07-.28,.02-.5,.24-.61,.12-.06,.24-.06,.36-.02,.11,.05,.2,.14,.26,.26,.26,.53,.39,1.14,.39,1.86,0,2.54-2.07,4.61-4.61,4.61h0Zm0-9.07c-2.49,0-4.52,2-4.52,4.46s2.03,4.52,4.52,4.52,4.52-2.03,4.52-4.52c0-.7-.13-1.3-.38-1.82-.05-.1-.13-.18-.21-.21-.09-.04-.19-.03-.28,.01-.26,.13-.23,.4-.2,.5,.22,.5,.34,1.01,.34,1.51,0,2.08-1.69,3.77-3.77,3.77s-3.77-1.69-3.77-3.77,1.69-3.77,3.77-3.77c.56,0,1.07,.11,1.52,.34,.2,.1,.4,0,.5-.15,.11-.22-.03-.4-.2-.49-.5-.25-1.14-.38-1.82-.38Zm0,6.67c-1.25,0-2.27-1.02-2.27-2.27s1.02-2.27,2.27-2.27c.3,0,.49,.19,.49,.49s-.25,.49-.49,.49c-.75,0-1.34,.59-1.34,1.34s.59,1.34,1.34,1.34,1.34-.59,1.34-1.34c0-.26,.14-.55,.43-.55s.49,.25,.49,.49c0,1.25-1.02,2.27-2.27,2.27h0Zm0-4.45c-1.2,0-2.18,.98-2.18,2.18s.98,2.18,2.18,2.18,2.18-.98,2.18-2.18c0-.19-.14-.4-.4-.4s-.34,.3-.34,.46c0,.81-.63,1.44-1.44,1.44s-1.44-.63-1.44-1.44,.63-1.44,1.44-1.44c.19,0,.4-.14,.4-.4s-.15-.4-.4-.4h0Zm-.06,2.95c-.36,0-.66-.3-.66-.66s.3-.66,.66-.66h.04l3.47-3.47-.44-2.31c-.07-.2,.02-.33,.12-.43l2.72-2.72c.13-.13,.32-.18,.49-.12,.2,.07,.31,.2,.31,.38l.38,2.24,2.25,.38h0c.17,0,.3,.11,.37,.31h0c.06,.19,0,.38-.18,.5l-2.72,2.72c-.06,.06-.18,.12-.31,.12h-.06l-2.27-.44-3.53,3.53c-.01,.35-.31,.64-.66,.64h0Zm0-1.22c-.31,0-.57,.26-.57,.57s.26,.57,.57,.57,.57-.26,.57-.57v-.02l3.59-3.59,2.3,.45h.05c.1,0,.2-.05,.25-.1l2.72-2.72c.15-.1,.21-.25,.16-.4h0c-.04-.11-.12-.25-.29-.25l-2.32-.4-.39-2.31c0-.18-.14-.26-.25-.3-.14-.05-.29,0-.4,.1l-2.72,2.72c-.1,.1-.15,.19-.1,.34l.45,2.37-3.53,3.53h-.07Zm6.47-3.39l-1.61-.3,2.02-2.02,1.61,.3-2.02,2.02h0Zm-1.42-.36l1.39,.26,1.87-1.87-1.39-.26-1.87,1.87Zm-.73-.55l-.36-1.61,2.08-2.08,.3,1.67-2.02,2.02h0Zm-.26-1.58l.31,1.4,1.87-1.87-.26-1.45-1.92,1.92Z"/></g></g></g></g><g class="cls-5"><g id="b-23"><g id="c-23"><path id="d-5" class="cls-4" d="M16.23,9.87h-6.75v3.9c0,.93-.75,1.68-1.67,1.68s-1.67-.75-1.67-1.68v-.65c-.17,.06-.36,.1-.56,.1-.93,0-1.67-.75-1.67-1.68v-1.67H1.66v-1.12H3.89v-1.67c0-.93,.75-1.68,1.67-1.68,.2,0,.38,.03,.56,.09h0v-.65c0-.93,.75-1.68,1.67-1.68s1.67,.75,1.67,1.68v3.9h6.75v-3.9c0-.93,.75-1.68,1.67-1.68s1.67,.75,1.67,1.68v.65c.17-.06,.36-.1,.56-.1,.93,0,1.67,.75,1.67,1.68v1.67h2.23v1.12h-2.23v1.67c0,.93-.75,1.68-1.67,1.68-.2,0-.38-.03-.56-.09v.65c0,.93-.75,1.68-1.67,1.68s-1.67-.75-1.67-1.68v-3.9h0Zm3.91-3.35c-.31,0-.56,.24-.56,.56v4.47c0,.31,.26,.56,.56,.56s.56-.24,.56-.56V7.07c0-.31-.26-.56-.56-.56h0Zm-14.57,0c-.31,0-.56,.24-.56,.56v4.47c0,.31,.26,.56,.56,.56s.56-.24,.56-.56V7.07c0-.31-.26-.56-.56-.56h0Zm12.33-2.23c-.31,0-.56,.25-.56,.57V13.76c0,.31,.26,.57,.56,.57s.56-.25,.56-.57V4.85c0-.31-.26-.57-.56-.57h0Zm-10.1,0c-.31,0-.56,.25-.56,.57V13.76c0,.31,.26,.57,.56,.57s.56-.25,.56-.57V4.85c0-.31-.26-.57-.56-.57h0Z"/></g></g></g><g class="cls-5"><path class="cls-3" d="M34.9,58.18c-3.4,0-6.16-2.76-6.16-6.16s2.76-6.16,6.16-6.16,6.16,2.76,6.16,6.16-2.76,6.16-6.16,6.16Zm0-1.23c2.72,0,4.93-2.21,4.93-4.93s-2.21-4.93-4.93-4.93-4.93,2.21-4.93,4.93,2.21,4.93,4.93,4.93Zm-2.18-2.75c-.24-.24-.24-.63,0-.87s.63-.24,.87,0c.72,.72,1.89,.72,2.61,0,.24-.24,.63-.24,.87,0s.24,.63,0,.87c-1.2,1.2-3.15,1.21-4.36,0h0Zm.33-2.8c-.34,0-.62-.28-.62-.62s.28-.62,.62-.62,.62,.28,.62,.62-.28,.62-.62,.62Zm3.7,0c-.34,0-.62-.28-.62-.62s.28-.62,.62-.62,.62,.28,.62,.62-.28,.62-.62,.62Z"/></g><g class="cls-5"><path class="cls-3" d="M51.64,32.17s.08,0,.12,0c.32-.05,.53-.35,.47-.67v-.03c-.07-.34-.1-.69-.1-1.04,0-1.65,.76-3.2,2.06-4.22,.08,.31,.29,.57,.58,.71l.14,.06c.29,.13,.6,.2,.92,.2h0c.13,.07,.24,.18,.33,.3,.06,.28,.09,.57,.12,.85,.01,.25,.05,.5,.1,.75,0,.1,.03,.2,.05,.3,.02,.22,.18,.41,.39,.47,.05,0,.1,0,.14,0,.33,0,.58-.33,.94-.79,.07-.09,.16-.21,.2-.25l.09-.05c.35-.15,.61-.46,.71-.82,.02-.24,.02-.48,0-.72v-.63c.16-.13,.34-.24,.52-.35l1.03-.27c1.06,.7,1.83,1.75,2.18,2.96,.09,.32,.42,.51,.74,.41,.32-.09,.51-.42,.41-.74-1-3.47-4.62-5.48-8.1-4.48-2.81,.81-4.75,3.39-4.74,6.31,0,.42,.04,.83,.12,1.25,.04,.29,.29,.5,.58,.49Zm7.44-6.83l-.1,.05c-.86,.49-.97,.74-1,.83-.08,.35-.1,.7-.06,1.05v.5c-.08,.06-.16,.12-.25,.17l-.18,.12c-.08,.06-.15,.13-.21,.21-.03-.36-.08-.71-.16-1.07-.01-.06-.03-.12-.06-.17-.09-.14-.58-.83-1.2-.83-.2,0-.4-.04-.58-.13l-.12-.05c-.06-.11-.1-.23-.13-.36,.75-.38,1.58-.58,2.43-.58,.55,0,1.1,.07,1.62,.23h0Zm6.91,3.16c-.1-.45-.49-.78-1.16-.97-.26-.08-.54,.07-.62,.34-.08,.26,.07,.54,.34,.62,.41,.12,.47,.24,.47,.24,0,.41-2.12,2-7.16,3.17s-7.67,.69-7.82,.31c0,0,0-.17,.41-.5,.21-.17,.24-.48,.07-.68h0c-.17-.22-.48-.25-.69-.08h0c-.58,.51-.85,1.01-.74,1.49,.17,.72,1.04,1.11,2.68,1.16v.03c1.75,3.17,5.73,4.32,8.89,2.57,1.98-1.09,3.26-3.13,3.38-5.4,1.5-.8,2.15-1.55,1.97-2.29Zm-8.75,7.29l.47-.38,.82-.1c.16-.02,.31-.12,.38-.26l.18-.34,.18,.36-.12,.47c-.54,.17-1.1,.26-1.66,.26l-.25-.02Zm3.04-.78c0-.08-.02-.15-.05-.23l-.68-1.38c-.12-.24-.42-.34-.66-.22-.1,.05-.17,.12-.22,.22l-.52,.97-.71,.09c-.1,0-.19,.05-.26,.11l-1.08,.9s-.09,.09-.12,.14c-1.14-.33-2.13-1.03-2.83-1.99,1.67-.11,3.33-.36,4.96-.76,1.58-.36,3.13-.85,4.63-1.47-.27,1.51-1.16,2.83-2.47,3.63Z"/></g><g class="cls-5"><g><path class="cls-3" d="M57.69,49.58c0,.52,.5,.98,1.02,.98h2.74c.52,0,.88-.46,.88-.98v-3.58c0-.52-.36-.91-.88-.91h-2.74c-.52,0-1.02,.39-1.02,.91v.14h-6.32v-.14c0-.52-.36-.91-.88-.91h-2.74c-.52,0-1.02,.39-1.02,.91v3.58c0,.52,.5,.98,1.02,.98h2.74c.52,0,.88-.46,.88-.98v-.07h6.32v.07Zm.84-.11v-3.48c0-.06,.12-.07,.17-.07h2.74c.06,0,.04,.01,.04,.07v3.58c0,.06,.02,.14-.04,.14h-2.74c-.06,0-.17-.08-.17-.14v-.11Zm-8.05,.25h-2.74c-.06,0-.17-.08-.17-.14v-3.58c0-.06,.12-.07,.17-.07h2.74c.06,0,.04,.01,.04,.07v3.58c0,.06,.02,.14-.04,.14Zm1.93-1.05h-1.05v-1.69h1.05v1.69Zm3.79,0h-3.37v-1.69h3.37v1.69Zm.42,0v-1.69h1.05v1.69h-1.05Z"/><path class="cls-3" d="M66.93,52.67h-2.74c-.52,0-1.02,.39-1.02,.91v.14h-6.32v-.14c0-.52-.36-.91-.88-.91h-2.74c-.52,0-1.02,.39-1.02,.91v3.58c0,.52,.5,.98,1.02,.98h2.74c.52,0,.88-.46,.88-.98v-.07h6.32v.07c0,.52,.5,.98,1.02,.98h2.74c.52,0,.88-.46,.88-.98v-3.58c0-.52-.36-.91-.88-.91Zm-10.96,4.64h-2.74c-.06,0-.17-.08-.17-.14v-3.58c0-.06,.12-.07,.17-.07h2.74c.06,0,.04,.01,.04,.07v3.58c0,.06,.02,.14-.04,.14Zm1.93-1.05h-1.05v-1.69h1.05v1.69Zm3.79,0h-3.37v-1.69h3.37v1.69Zm1.48,0h-1.05v-1.69h1.05v1.69Zm3.76,1.05h-2.74c-.06,0-.17-.08-.17-.14v-3.58c0-.06,.12-.07,.17-.07h2.74c.06,0,.04,.01,.04,.07v3.58c0,.06,.02,.14-.04,.14Z"/></g></g><g class="cls-5"><path class="cls-3" d="M23.96,28.81H15.92c-.28,0,0-.26,0-.26h0c.13-.12,.23-.23,.3-.31,1.28-1.69,.19-4.22,.02-4.58-.6-1.06-1.33-1.64-2.06-1.93-.06-.02-.11-.04-.18-.07-.33-.12-.71-.24-1.14-.33-1.86-.28-3.63,.59-3.64,.6-1.61,.92-5.72,3.34-7.55,5.09-.09,.08-.18,.17-.26,.26-.07,.07-.13,.14-.19,.21-.02,.02-.03,.04-.05,.05-.05,.07-.11,.13-.15,.2h.01c-.36,.49-.65,1.07-.83,1.78-.58,1.83,.04,5.92,3.49,7.22,.15,.05,.82,.25,1.82,.25H14.94c.33-.01,1.11-.12,1.86-.79h0l7.02-6.28,.2-.18c1-.89-.07-.93-.07-.93Zm-14.66-5.41s3.41-1.97,5.23,.33c.24,.33,.49,.73,.68,1.17,.02,.06,.55,1.95-.33,2.92,0,0-.02,.02-.02,.03-.02,.02-.04,.04-.06,.06-.08,.07-.16,.14-.25,.21l-3.79,2.83c.09-1.65-.59-3.3-.93-3.84-.88-1.27-2.11-1.69-2.87-1.83-.24-.04-.68-.05-.68-.05l3.01-1.83Zm12.26,7.15l-4.94,4.49c-.77,.7-1.58,.82-1.94,.83H5.28c-.74,0-1.52-.27-1.59-.3-.23-.11-.47-.24-.72-.4-2.69-1.72-1.89-5.02-1.75-5.49v-.02l.02-.04h0c.58-1.83,1.94-3.17,4.51-3.25,.32,0,1.25,.08,2.08,.71,.2,.17,.41,.36,.61,.6,.39,.51,1.31,1.99,.89,3.71-.34,1.12-.82,1.61-1.49,2.06-.67,.45-2,.87-3.26,.1-.73-.5-1.29-1.36-1.18-2.49,.1-1.14,1.27-1.96,2.32-1.71,1.04,.24,1.66,1.81,.53,2.43-.53,.23-.85,.09-1.06-.2h0s-.3-.28-.68-.11c-.38,.17-.26,.71-.26,.72,.41,.61,1.21,1.06,2.4,.64,.27-.1,.5-.25,.68-.43h0l.04-.05s.08-.09,.11-.13c.41-.5,1.37-2.02-.16-3.74-.89-.71-3.65-1.48-4.81,1.6-.04,.1-.08,.21-.11,.32,0,.02-.01,.03-.02,.04h0c-.2,.7-.2,1.55,.22,2.5,.93,2.11,3.6,2.68,5.55,1.63,.35-.19,.67-.42,.96-.69h0l4.7-3.69s.33-.3,.83-.3h6.9c.67,0,.09,.57,0,.64Z"/></g><g class="cls-5"><g id="b-24"><g id="c-24"><g><path class="cls-3" d="M180.2,23.97c-.28,0-.58-.06-.89-.17-.41-.15-.7-.33-.73-.36-.17-.11-.25-.32-.19-.52,.01-.04,.11-.36,.32-.73,.31-.54,.71-.9,1.16-1.06,.45-.16,.98-.14,1.56,.06,.41,.14,.71,.32,.72,.33,.18,.11,.26,.33,.2,.53-.02,.06-.42,1.36-1.46,1.78h0c-.21,.09-.45,.13-.7,.13h0Zm-.77-1.12c.32,.14,.77,.27,1.12,.13h0c.35-.14,.61-.52,.77-.83-.33-.13-.78-.25-1.13-.13-.35,.12-.6,.51-.76,.83h0Z"/><path class="cls-3" d="M177.14,34.79c-.47,0-.96-.19-1.46-.56-1.47-1.11-2.71-3.72-2.91-5.37-.28-2.32,1.18-4.48,3.25-4.83,.81-.16,1.72,.02,2.51,.51l.02,.02c.34,.24,.82,.23,1.21,0,.73-.48,1.65-.67,2.47-.51,2.13,.34,3.58,2.51,3.25,4.83-.2,1.65-1.44,4.26-2.91,5.36-.59,.45-1.18,.63-1.74,.53h-.02c-.33-.07-.63-.2-.87-.38-.48-.33-1.15-.33-1.63,0-.24,.18-.54,.31-.87,.38h-.02c-.1,.02-.19,.03-.29,.03h0Zm3.86-.95c.3,.05,.64-.07,1.02-.36,1.24-.94,2.37-3.27,2.54-4.73h0c.26-1.84-.85-3.53-2.48-3.79h-.02c-.58-.12-1.25,.02-1.78,.37h0c-.7,.45-1.59,.45-2.24,0-.58-.36-1.25-.49-1.83-.38h-.02c-1.59,.26-2.7,1.96-2.48,3.79,.17,1.46,1.3,3.8,2.54,4.73,.38,.28,.72,.4,1.02,.36,.19-.04,.37-.11,.5-.21h.01c.8-.56,1.91-.56,2.71-.01h.01c.13,.11,.3,.18,.5,.22h0Z"/><path class="cls-3" d="M179.13,25.66c-.26,0-.47-.21-.47-.47,0-1.26-.6-2.45-1.59-3.19l-.2-.15c-.21-.16-.25-.45-.09-.66,.16-.21,.45-.25,.66-.09l.2,.15c1.23,.91,1.97,2.38,1.97,3.94,0,.26-.21,.47-.47,.47h0Z"/></g></g></g></g><g class="cls-5"><g id="b-25"><g id="c-25"><g><path class="cls-3" d="M183,47.56c-.22,.06-.33,.33-.22,.56,.28,.67,.39,1.39,.39,2.11,0,3.34-2.72,6.01-6.01,6.01s-6.01-2.67-6.01-6.01,2.67-6.01,6.01-6.01c.61,0,1.28,.11,1.89,.28,.22,.06,.45-.06,.5-.28s-.06-.45-.28-.5c-.67-.22-1.39-.33-2.11-.33-3.78,0-6.84,3.06-6.84,6.84s3.06,6.84,6.84,6.84,6.84-3.06,6.84-6.84c0-.83-.17-1.67-.45-2.45-.06-.17-.33-.28-.56-.22Zm-5.84,1.28c.22,0,.45-.17,.45-.45s-.17-.45-.45-.45c-1.22,0-2.22,1-2.22,2.22s1,2.22,2.22,2.22,2.22-1,2.22-2.22c0-.22-.17-.45-.45-.45s-.39,.28-.39,.5c0,.78-.61,1.39-1.39,1.39s-1.39-.61-1.39-1.39,.61-1.39,1.39-1.39h0Zm2.06-2.17c.11-.22,0-.45-.22-.56-.56-.28-1.22-.39-1.84-.39-2.5,0-4.56,2-4.56,4.51s2.06,4.56,4.56,4.56,4.56-2.06,4.56-4.56c0-.67-.11-1.28-.39-1.84-.11-.22-.33-.33-.56-.22s-.28,.33-.22,.56c.22,.5,.33,1,.33,1.5,0,2.06-1.67,3.73-3.73,3.73s-3.73-1.67-3.73-3.73,1.67-3.73,3.73-3.73c.56,0,1.06,.11,1.5,.33,.22,.11,.45,0,.56-.17h0Zm7.56-2.78c-.06-.17-.17-.28-.33-.28l-2.28-.39-.39-2.28c0-.17-.11-.28-.28-.33-.17-.06-.33,0-.45,.11l-2.72,2.72c-.11,.11-.17,.22-.11,.39l.45,2.34-3.5,3.5h-.06c-.33,0-.61,.28-.61,.61s.28,.61,.61,.61,.61-.28,.61-.61h0l3.56-3.56,2.28,.45h.06c.11,0,.22-.06,.28-.11l2.72-2.72c.17-.11,.22-.28,.17-.45Zm-5.67-.06l2-2,.28,1.56-1.95,1.95-.33-1.5Zm2.45,2.45l-1.5-.28,1.95-1.95,1.5,.28-1.95,1.95Z"/><path class="cls-3" d="M177.16,57.12c-3.8,0-6.89-3.09-6.89-6.89s3.09-6.89,6.89-6.89c.73,0,1.47,.12,2.13,.34,.12,.03,.21,.1,.27,.21,.06,.1,.07,.22,.04,.35-.06,.24-.3,.38-.56,.31-.66-.18-1.31-.28-1.88-.28-1.6,0-3.1,.62-4.22,1.74-1.12,1.12-1.74,2.62-1.74,4.22,0,3.29,2.67,5.96,5.96,5.96s5.96-2.67,5.96-5.96c0-.78-.13-1.48-.39-2.1-.06-.12-.06-.27,0-.4,.05-.11,.15-.19,.26-.22h0c.24-.06,.55,.06,.61,.25,.3,.83,.45,1.66,.45,2.46,0,3.8-3.09,6.89-6.89,6.89h0Zm0-13.68c-3.75,0-6.8,3.05-6.8,6.8s3.05,6.8,6.8,6.8,6.8-3.05,6.8-6.8c0-.79-.15-1.61-.44-2.43-.05-.14-.31-.24-.5-.19h0c-.09,.02-.16,.08-.2,.17-.05,.1-.04,.22,0,.32,.26,.63,.39,1.35,.39,2.13,0,3.34-2.72,6.05-6.05,6.05s-6.05-2.71-6.05-6.05c0-1.63,.63-3.15,1.77-4.29,1.14-1.14,2.66-1.77,4.29-1.77,.57,0,1.23,.1,1.9,.28,.21,.05,.4-.05,.44-.25,.02-.1,.01-.2-.03-.28-.04-.08-.12-.14-.21-.17-.65-.22-1.38-.33-2.1-.33h0Zm0,11.4c-2.54,0-4.61-2.07-4.61-4.61s2.07-4.55,4.61-4.55c.69,0,1.35,.14,1.86,.39,.12,.06,.21,.15,.26,.26,.05,.12,.04,.24-.02,.36h0c-.12,.18-.36,.31-.61,.19-.44-.22-.93-.33-1.48-.33-2.03,0-3.68,1.65-3.68,3.68s1.65,3.68,3.68,3.68,3.68-1.65,3.68-3.68c0-.49-.11-.99-.33-1.48-.07-.28,.02-.5,.24-.61,.12-.06,.24-.06,.36-.02,.11,.05,.2,.14,.26,.26,.26,.53,.39,1.14,.39,1.86,0,2.54-2.07,4.61-4.61,4.61h0Zm0-9.07c-2.49,0-4.52,2-4.52,4.46s2.03,4.52,4.52,4.52,4.52-2.03,4.52-4.52c0-.7-.13-1.3-.38-1.82-.05-.1-.13-.18-.21-.21-.09-.04-.19-.03-.28,.01-.26,.13-.23,.4-.2,.5,.22,.5,.34,1.01,.34,1.51,0,2.08-1.69,3.77-3.77,3.77s-3.77-1.69-3.77-3.77,1.69-3.77,3.77-3.77c.56,0,1.07,.11,1.52,.34,.2,.1,.4,0,.5-.15,.11-.22-.03-.4-.2-.49-.5-.25-1.14-.38-1.82-.38Zm0,6.67c-1.25,0-2.27-1.02-2.27-2.27s1.02-2.27,2.27-2.27c.3,0,.49,.19,.49,.49s-.25,.49-.49,.49c-.75,0-1.34,.59-1.34,1.34s.59,1.34,1.34,1.34,1.34-.59,1.34-1.34c0-.26,.14-.55,.43-.55s.49,.25,.49,.49c0,1.25-1.02,2.27-2.27,2.27h0Zm0-4.45c-1.2,0-2.18,.98-2.18,2.18s.98,2.18,2.18,2.18,2.18-.98,2.18-2.18c0-.19-.14-.4-.4-.4s-.34,.3-.34,.46c0,.81-.63,1.44-1.44,1.44s-1.44-.63-1.44-1.44,.63-1.44,1.44-1.44c.19,0,.4-.14,.4-.4s-.15-.4-.4-.4h0Zm-.06,2.95c-.36,0-.66-.3-.66-.66s.3-.66,.66-.66h.04l3.47-3.47-.44-2.31c-.07-.2,.02-.33,.12-.43l2.72-2.72c.13-.13,.32-.18,.49-.12,.2,.07,.31,.2,.31,.38l.38,2.24,2.25,.38h0c.17,0,.3,.11,.37,.31h0c.06,.19,0,.38-.18,.5l-2.72,2.72c-.06,.06-.18,.12-.31,.12h-.06l-2.27-.44-3.53,3.53c-.01,.35-.31,.64-.66,.64h0Zm0-1.22c-.31,0-.57,.26-.57,.57s.26,.57,.57,.57,.57-.26,.57-.57v-.02l3.59-3.59,2.3,.45h.05c.1,0,.2-.05,.25-.1l2.72-2.72c.15-.1,.21-.25,.16-.4h0c-.04-.11-.12-.25-.29-.25l-2.32-.4-.39-2.31c0-.18-.14-.26-.25-.3-.14-.05-.29,0-.4,.1l-2.72,2.72c-.1,.1-.15,.19-.1,.34l.45,2.37-3.53,3.53h-.07Zm6.47-3.39l-1.61-.3,2.02-2.02,1.61,.3-2.02,2.02h0Zm-1.42-.36l1.39,.26,1.87-1.87-1.39-.26-1.87,1.87Zm-.73-.55l-.36-1.61,2.08-2.08,.3,1.67-2.02,2.02h0Zm-.26-1.58l.31,1.4,1.87-1.87-.26-1.45-1.92,1.92Z"/></g></g></g></g><g class="cls-5"><g id="b-26"><g id="c-26"><path id="d-6" class="cls-4" d="M158,29.21h-6.75v3.9c0,.93-.75,1.68-1.67,1.68s-1.67-.75-1.67-1.68v-.65c-.17,.06-.36,.1-.56,.1-.93,0-1.67-.75-1.67-1.68v-1.67h-2.23v-1.12h2.23v-1.67c0-.93,.75-1.68,1.67-1.68,.2,0,.38,.03,.56,.09h0v-.65c0-.93,.75-1.68,1.67-1.68s1.67,.75,1.67,1.68v3.9h6.75v-3.9c0-.93,.75-1.68,1.67-1.68s1.67,.75,1.67,1.68v.65c.17-.06,.36-.1,.56-.1,.93,0,1.67,.75,1.67,1.68v1.67h2.23v1.12h-2.23v1.67c0,.93-.75,1.68-1.67,1.68-.2,0-.38-.03-.56-.09v.65c0,.93-.75,1.68-1.67,1.68s-1.67-.75-1.67-1.68v-3.9h0Zm3.91-3.35c-.31,0-.56,.24-.56,.56v4.47c0,.31,.26,.56,.56,.56s.56-.24,.56-.56v-4.47c0-.31-.26-.56-.56-.56h0Zm-14.57,0c-.31,0-.56,.24-.56,.56v4.47c0,.31,.26,.56,.56,.56s.56-.24,.56-.56v-4.47c0-.31-.26-.56-.56-.56h0Zm12.33-2.23c-.31,0-.56,.25-.56,.57v8.91c0,.31,.26,.57,.56,.57s.56-.25,.56-.57v-8.91c0-.31-.26-.57-.56-.57h0Zm-10.1,0c-.31,0-.56,.25-.56,.57v8.91c0,.31,.26,.57,.56,.57s.56-.25,.56-.57v-8.91c0-.31-.26-.57-.56-.57h0Z"/></g></g></g><g class="cls-5"><g id="_16-heart-5"><path class="cls-1" d="M156.44,3.65c-1.44-1.49-3.82-1.52-5.31-.08-.03,.03-.05,.05-.08,.08-1.44-1.49-3.82-1.52-5.31-.08-.03,.03-.05,.05-.08,.08-1.49,1.53-1.49,3.97,0,5.5l5.39,5.49,5.39-5.5c1.49-1.53,1.49-3.96,0-5.49Z"/><path class="cls-1" d="M155.39,6.41c0-.96-.78-1.73-1.73-1.73"/></g></g><g class="cls-5"><g><path class="cls-2" d="M177.74,7.43h3.44c.99,0,1.78-.8,1.78-1.78V2.65h-.64v3c0,.64-.51,1.15-1.15,1.15h-12.36c-.64,0-1.15-.51-1.15-1.15V2.65h-.64v3c0,.99,.8,1.78,1.78,1.78h3.44c-3.12,1.12-5.39,4.14-5.39,7.65v.32h16.25v-.32c0-3.51-2.26-6.53-5.39-7.65Zm-10.23,7.33c.16-3.98,3.47-7.17,7.49-7.17s7.33,3.19,7.49,7.17h-14.98Z"/><path class="cls-2" d="M178.6,9.12l-3.15,2.9c-.13-.1-.29-.13-.45-.13-.54,0-.96,.41-.96,.96s.41,.96,.96,.96,.96-.41,.96-.96c0-.16-.03-.32-.13-.45l2.9-3.15-.13-.13Z"/></g></g><g class="cls-5"><path class="cls-3" d="M165.74,48.16h-8.04c-.28,0,0-.26,0-.26h0c.13-.12,.23-.23,.3-.31,1.28-1.69,.19-4.22,.02-4.58-.6-1.06-1.33-1.64-2.06-1.93-.06-.02-.11-.04-.18-.07-.33-.12-.71-.24-1.14-.33-1.86-.28-3.63,.59-3.64,.6-1.61,.92-5.72,3.34-7.55,5.09-.09,.08-.18,.17-.26,.26-.07,.07-.13,.14-.19,.21-.02,.02-.03,.04-.05,.05-.05,.07-.11,.13-.15,.2h.01c-.36,.49-.65,1.07-.83,1.78-.58,1.83,.04,5.92,3.49,7.22,.15,.05,.82,.25,1.82,.25h9.44c.33-.01,1.11-.12,1.86-.79h0l7.02-6.28,.2-.18c1-.89-.07-.93-.07-.93Zm-14.66-5.41s3.41-1.97,5.23,.33c.24,.33,.49,.73,.68,1.17,.02,.06,.55,1.95-.33,2.92,0,0-.02,.02-.02,.03-.02,.02-.04,.04-.06,.06-.08,.07-.16,.14-.25,.21l-3.79,2.83c.09-1.65-.59-3.3-.93-3.84-.88-1.27-2.11-1.69-2.87-1.83-.24-.04-.68-.05-.68-.05l3.01-1.83Zm12.26,7.15l-4.94,4.49c-.77,.7-1.58,.82-1.94,.83h-9.41c-.74,0-1.52-.27-1.59-.3-.23-.11-.47-.24-.72-.4-2.69-1.72-1.89-5.02-1.75-5.49v-.02l.02-.04h0c.58-1.83,1.94-3.17,4.51-3.25,.32,0,1.25,.08,2.08,.71,.2,.17,.41,.36,.61,.6,.39,.51,1.31,1.99,.89,3.71-.34,1.12-.82,1.61-1.49,2.06-.67,.45-2,.87-3.26,.1-.73-.5-1.29-1.36-1.18-2.49,.1-1.14,1.27-1.96,2.32-1.71,1.04,.24,1.66,1.81,.53,2.43-.53,.23-.85,.09-1.06-.2h0s-.3-.28-.68-.11c-.38,.17-.26,.71-.26,.72,.41,.61,1.21,1.06,2.4,.64,.27-.1,.5-.25,.68-.43h0l.04-.05s.08-.09,.11-.13c.41-.5,1.37-2.02-.16-3.74-.89-.71-3.65-1.48-4.81,1.6-.04,.1-.08,.21-.11,.32,0,.02-.01,.03-.02,.04h0c-.2,.7-.2,1.55,.22,2.5,.93,2.11,3.6,2.68,5.55,1.63,.35-.19,.67-.42,.96-.69h0l4.7-3.69s.33-.3,.83-.3h6.9c.67,0,.09,.57,0,.64Z"/></g><g class="cls-5"><g id="b-27"><g id="c-27"><g><path class="cls-3" d="M87.58,22.73h-1.94c-.22,0-.42,.19-.42,.42s.19,.42,.42,.42h.94l-.97,.94-.69-.69c-.17-.17-.42-.17-.58,0s-.17,.42,0,.58l.69,.69-.42,.42c-1.27-1.05-3.02-1.36-4.57-.75-.22,.08-.33,.33-.25,.53,.08,.22,.33,.33,.53,.25,1.38-.53,2.94-.19,3.99,.86,.36,.36,.64,.78,.83,1.25,.06,.17,.22,.25,.39,.25,.06,0,.11,0,.17-.03,.22-.08,.3-.33,.22-.53-.17-.44-.42-.86-.72-1.22l.42-.42,.69,.69c.08,.08,.19,.11,.3,.11s.22-.03,.3-.11c.17-.17,.17-.42,0-.58l-.69-.69,.94-.94v.94c0,.22,.19,.42,.42,.42s.42-.19,.42-.42v-1.94c0-.06,0-.11-.03-.14h0c-.06-.11-.11-.19-.22-.22h0c-.06-.08-.11-.08-.17-.08h0Z"/><path class="cls-3" d="M84.95,32.23c.53-.53,.94-1.22,1.16-1.94,.06-.22-.06-.44-.28-.53-.22-.06-.44,.06-.53,.28-.17,.58-.5,1.14-.94,1.58-.69,.69-1.63,1.11-2.63,1.11s-1.94-.39-2.63-1.11c-1.22-1.22-1.44-3.07-.58-4.54,.11-.19,.06-.44-.14-.58-.19-.11-.44-.06-.58,.14-1.05,1.8-.78,4.07,.69,5.57,.86,.86,2.02,1.33,3.24,1.33s2.33-.42,3.21-1.3h0Z"/><path class="cls-3" d="M91.84,26.94c-.06-.11-.11-.19-.22-.22h0c-.06-.03-.11-.03-.14-.03h-1.99c-.22,0-.42,.19-.42,.42s.19,.42,.42,.42h.97l-1.94,1.94c-.83-.69-1.86-1.05-2.94-1.05-1.22,0-2.38,.47-3.24,1.33-.53,.53-.94,1.22-1.16,1.94-.06,.22,.06,.44,.28,.53,.22,.06,.44-.06,.53-.28,.17-.58,.5-1.14,.94-1.58,.69-.69,1.63-1.11,2.63-1.11s1.94,.39,2.63,1.11c1.47,1.47,1.47,3.82,0,5.29-.69,.69-1.63,1.11-2.63,1.11s-1.94-.39-2.63-1.11c-.36-.36-.64-.78-.83-1.25-.08-.22-.33-.3-.53-.22-.22,.08-.3,.33-.22,.53,.22,.58,.58,1.08,1.02,1.52,.86,.86,2.02,1.33,3.24,1.33s2.38-.47,3.24-1.33c1.69-1.69,1.77-4.35,.28-6.15l1.94-1.94v.94c0,.22,.19,.42,.42,.42s.42-.19,.42-.42v-1.99c-.03-.06-.03-.08-.06-.14h0Z"/><path class="cls-3" d="M77.63,32.32c-.44,.19-.94,.3-1.44,.3-2.05,0-3.74-1.69-3.74-3.74s1.66-3.74,3.74-3.74,3.74,1.69,3.74,3.74c0,.64-.17,1.27-.47,1.8-.11,.19-.03,.44,.17,.55,.19,.11,.44,.03,.55-.17,.39-.66,.58-1.44,.58-2.22,0-2.49-2.05-4.54-4.57-4.54s-4.57,2.05-4.57,4.57c0,2.38,1.83,4.35,4.15,4.54v1.99h-.97c-.22,0-.42,.19-.42,.42s.19,.42,.42,.42h.97v.94c0,.22,.19,.42,.42,.42s.42-.19,.42-.42v-.94h.97c.22,0,.42-.19,.42-.42s-.19-.42-.42-.42h-.97v-1.99c.47-.06,.91-.17,1.36-.33,.22-.08,.3-.33,.22-.55-.08-.19-.33-.3-.55-.22h0Z"/></g></g></g></g><g class="cls-5"><g id="b-28"><g id="c-28"><g><path class="cls-3" d="M111.66,7.02c-.22,.06-.33,.33-.22,.56,.28,.67,.39,1.39,.39,2.11,0,3.34-2.72,6.01-6.01,6.01s-6.01-2.67-6.01-6.01,2.67-6.01,6.01-6.01c.61,0,1.28,.11,1.89,.28,.22,.06,.45-.06,.5-.28s-.06-.45-.28-.5c-.67-.22-1.39-.33-2.11-.33-3.78,0-6.84,3.06-6.84,6.84s3.06,6.84,6.84,6.84,6.84-3.06,6.84-6.84c0-.83-.17-1.67-.45-2.45-.06-.17-.33-.28-.56-.22Zm-5.84,1.28c.22,0,.45-.17,.45-.45s-.17-.45-.45-.45c-1.22,0-2.22,1-2.22,2.22s1,2.22,2.22,2.22,2.22-1,2.22-2.22c0-.22-.17-.45-.45-.45s-.39,.28-.39,.5c0,.78-.61,1.39-1.39,1.39s-1.39-.61-1.39-1.39,.61-1.39,1.39-1.39h0Zm2.06-2.17c.11-.22,0-.45-.22-.56-.56-.28-1.22-.39-1.84-.39-2.5,0-4.56,2-4.56,4.51s2.06,4.56,4.56,4.56,4.56-2.06,4.56-4.56c0-.67-.11-1.28-.39-1.84-.11-.22-.33-.33-.56-.22s-.28,.33-.22,.56c.22,.5,.33,1,.33,1.5,0,2.06-1.67,3.73-3.73,3.73s-3.73-1.67-3.73-3.73,1.67-3.73,3.73-3.73c.56,0,1.06,.11,1.5,.33,.22,.11,.45,0,.56-.17h0Zm7.56-2.78c-.06-.17-.17-.28-.33-.28l-2.28-.39-.39-2.28c0-.17-.11-.28-.28-.33-.17-.06-.33,0-.45,.11l-2.72,2.72c-.11,.11-.17,.22-.11,.39l.45,2.34-3.5,3.5h-.06c-.33,0-.61,.28-.61,.61s.28,.61,.61,.61,.61-.28,.61-.61h0l3.56-3.56,2.28,.45h.06c.11,0,.22-.06,.28-.11l2.72-2.72c.17-.11,.22-.28,.17-.45Zm-5.67-.06l2-2,.28,1.56-1.95,1.95-.33-1.5Zm2.45,2.45l-1.5-.28,1.95-1.95,1.5,.28-1.95,1.95Z"/><path class="cls-3" d="M105.82,16.58c-3.8,0-6.89-3.09-6.89-6.89s3.09-6.89,6.89-6.89c.73,0,1.47,.12,2.13,.34,.12,.03,.21,.1,.27,.21,.06,.1,.07,.22,.04,.35-.06,.24-.3,.38-.56,.31-.66-.18-1.31-.28-1.88-.28-1.6,0-3.1,.62-4.22,1.74-1.12,1.12-1.74,2.62-1.74,4.22,0,3.29,2.67,5.96,5.96,5.96s5.96-2.67,5.96-5.96c0-.78-.13-1.48-.39-2.1-.06-.12-.06-.27,0-.4,.05-.11,.15-.19,.26-.22h0c.24-.06,.55,.06,.61,.25,.3,.83,.45,1.66,.45,2.46,0,3.8-3.09,6.89-6.89,6.89h0Zm0-13.68c-3.75,0-6.8,3.05-6.8,6.8s3.05,6.8,6.8,6.8,6.8-3.05,6.8-6.8c0-.79-.15-1.61-.44-2.43-.05-.14-.31-.24-.5-.19h0c-.09,.02-.16,.08-.2,.17-.05,.1-.04,.22,0,.32,.26,.63,.39,1.35,.39,2.13,0,3.34-2.72,6.05-6.05,6.05s-6.05-2.71-6.05-6.05c0-1.63,.63-3.15,1.77-4.29,1.14-1.14,2.66-1.77,4.29-1.77,.57,0,1.23,.1,1.9,.28,.21,.05,.4-.05,.44-.25,.02-.1,.01-.2-.03-.28-.04-.08-.12-.14-.21-.17-.65-.22-1.38-.33-2.1-.33h0Zm0,11.4c-2.54,0-4.61-2.07-4.61-4.61s2.07-4.55,4.61-4.55c.69,0,1.35,.14,1.86,.39,.12,.06,.21,.15,.26,.26,.05,.12,.04,.24-.02,.36h0c-.12,.18-.36,.31-.61,.19-.44-.22-.93-.33-1.48-.33-2.03,0-3.68,1.65-3.68,3.68s1.65,3.68,3.68,3.68,3.68-1.65,3.68-3.68c0-.49-.11-.99-.33-1.48-.07-.28,.02-.5,.24-.61,.12-.06,.24-.06,.36-.02,.11,.05,.2,.14,.26,.26,.26,.53,.39,1.14,.39,1.86,0,2.54-2.07,4.61-4.61,4.61h0Zm0-9.07c-2.49,0-4.52,2-4.52,4.46s2.03,4.52,4.52,4.52,4.52-2.03,4.52-4.52c0-.7-.13-1.3-.38-1.82-.05-.1-.13-.18-.21-.21-.09-.04-.19-.03-.28,.01-.26,.13-.23,.4-.2,.5,.22,.5,.34,1.01,.34,1.51,0,2.08-1.69,3.77-3.77,3.77s-3.77-1.69-3.77-3.77,1.69-3.77,3.77-3.77c.56,0,1.07,.11,1.52,.34,.2,.1,.4,0,.5-.15,.11-.22-.03-.4-.2-.49-.5-.25-1.14-.38-1.82-.38Zm0,6.67c-1.25,0-2.27-1.02-2.27-2.27s1.02-2.27,2.27-2.27c.3,0,.49,.19,.49,.49s-.25,.49-.49,.49c-.75,0-1.34,.59-1.34,1.34s.59,1.34,1.34,1.34,1.34-.59,1.34-1.34c0-.26,.14-.55,.43-.55s.49,.25,.49,.49c0,1.25-1.02,2.27-2.27,2.27h0Zm0-4.45c-1.2,0-2.18,.98-2.18,2.18s.98,2.18,2.18,2.18,2.18-.98,2.18-2.18c0-.19-.14-.4-.4-.4s-.34,.3-.34,.46c0,.81-.63,1.44-1.44,1.44s-1.44-.63-1.44-1.44,.63-1.44,1.44-1.44c.19,0,.4-.14,.4-.4s-.15-.4-.4-.4h0Zm-.06,2.95c-.36,0-.66-.3-.66-.66s.3-.66,.66-.66h.04l3.47-3.47-.44-2.31c-.07-.2,.02-.33,.12-.43l2.72-2.72c.13-.13,.32-.18,.49-.12,.2,.07,.31,.2,.31,.38l.38,2.24,2.25,.38h0c.17,0,.3,.11,.37,.31h0c.06,.19,0,.38-.18,.5l-2.72,2.72c-.06,.06-.18,.12-.31,.12h-.06l-2.27-.44-3.53,3.53c-.01,.35-.31,.64-.66,.64h0Zm0-1.22c-.31,0-.57,.26-.57,.57s.26,.57,.57,.57,.57-.26,.57-.57v-.02l3.59-3.59,2.3,.45h.05c.1,0,.2-.05,.25-.1l2.72-2.72c.15-.1,.21-.25,.16-.4h0c-.04-.11-.12-.25-.29-.25l-2.32-.4-.39-2.31c0-.18-.14-.26-.25-.3-.14-.05-.29,0-.4,.1l-2.72,2.72c-.1,.1-.15,.19-.1,.34l.45,2.37-3.53,3.53h-.07Zm6.47-3.39l-1.61-.3,2.02-2.02,1.61,.3-2.02,2.02h0Zm-1.42-.36l1.39,.26,1.87-1.87-1.39-.26-1.87,1.87Zm-.73-.55l-.36-1.61,2.08-2.08,.3,1.67-2.02,2.02h0Zm-.26-1.58l.31,1.4,1.87-1.87-.26-1.45-1.92,1.92Z"/></g></g></g></g><g class="cls-5"><path class="cls-3" d="M105.34,36.98c-3.4,0-6.16-2.76-6.16-6.16s2.76-6.16,6.16-6.16,6.16,2.76,6.16,6.16-2.76,6.16-6.16,6.16Zm0-1.23c2.72,0,4.93-2.21,4.93-4.93s-2.21-4.93-4.93-4.93-4.93,2.21-4.93,4.93,2.21,4.93,4.93,4.93Zm-2.18-2.75c-.24-.24-.24-.63,0-.87s.63-.24,.87,0c.72,.72,1.89,.72,2.61,0,.24-.24,.63-.24,.87,0s.24,.63,0,.87c-1.2,1.2-3.15,1.21-4.36,0h0Zm.33-2.8c-.34,0-.62-.28-.62-.62s.28-.62,.62-.62,.62,.28,.62,.62-.28,.62-.62,.62Zm3.7,0c-.34,0-.62-.28-.62-.62s.28-.62,.62-.62,.62,.28,.62,.62-.28,.62-.62,.62Z"/></g><g class="cls-5"><g id="_16-heart-6"><path class="cls-1" d="M85.1,45.28c-1.44-1.49-3.82-1.52-5.31-.08-.03,.03-.05,.05-.08,.08-1.44-1.49-3.82-1.52-5.31-.08-.03,.03-.05,.05-.08,.08-1.49,1.53-1.49,3.97,0,5.5l5.39,5.49,5.39-5.5c1.49-1.53,1.49-3.96,0-5.49Z"/><path class="cls-1" d="M84.05,48.04c0-.96-.78-1.73-1.73-1.73"/></g></g><g class="cls-5"><g><path class="cls-3" d="M127.54,46.57c-1.5,0-2.73,1.23-2.73,2.73s1.23,2.73,2.73,2.73,2.73-1.23,2.73-2.73-1.23-2.73-2.73-2.73Zm0,4.54c-1,0-1.82-.82-1.82-1.82s.82-1.82,1.82-1.82,1.82,.82,1.82,1.82-.82,1.82-1.82,1.82Z"/><path class="cls-3" d="M128.09,48.43c-.23,.14-.27,.41-.18,.64,.09,.05,.09,.14,.09,.23,0,.27-.18,.45-.45,.45s-.45,.18-.45,.45,.18,.45,.45,.45c.77,0,1.36-.59,1.36-1.36,0-.23-.05-.5-.18-.68-.14-.23-.41-.27-.64-.18Z"/><path class="cls-3" d="M133.27,48.43c-.64-2.68-3-4.59-5.77-4.59-3.23,0-5.86,2.64-5.86,5.86,0,2,1.05,3.86,2.68,4.95,.09,1.05,.95,1.91,2.04,1.91,.41,0,.82-.14,1.14-.36,.59,.23,1.18,.36,1.82,.36,2.77,0,5-2.23,5-5,.05-1.14-.36-2.23-1.05-3.14Zm-3.91,7.23c-.59,0-1.18-.14-1.73-.36-.05-.05-.14-.05-.18-.05-.09,0-.23,.05-.32,.14-.23,.18-.5,.32-.77,.32-.64,0-1.14-.5-1.14-1.14v-.09c0-.18-.09-.32-.23-.41-1.55-.91-2.45-2.54-2.45-4.27,0-2.82,2.23-5.04,4.95-5.04,2.36,0,4.41,1.68,4.86,3.95,0,.09,.05,.14,.09,.18,.64,.73,.95,1.68,.95,2.64,.05,2.32-1.77,4.14-4.04,4.14Z"/></g></g><g class="cls-5"><path class="cls-3" d="M122.08,10.97s.08,0,.12,0c.32-.05,.53-.35,.47-.67v-.03c-.07-.34-.1-.69-.1-1.04,0-1.65,.76-3.2,2.06-4.22,.08,.31,.29,.57,.58,.71l.14,.06c.29,.13,.6,.2,.92,.2h0c.13,.07,.24,.18,.33,.3,.06,.28,.09,.57,.12,.85,.01,.25,.05,.5,.1,.75,0,.1,.03,.2,.05,.3,.02,.22,.18,.41,.39,.47,.05,0,.1,0,.14,0,.33,0,.58-.33,.94-.79,.07-.09,.16-.21,.2-.25l.09-.05c.35-.15,.61-.46,.71-.82,.02-.24,.02-.48,0-.72v-.63c.16-.13,.34-.24,.52-.35l1.03-.27c1.06,.7,1.83,1.75,2.18,2.96,.09,.32,.42,.51,.74,.41,.32-.09,.51-.42,.41-.74-1-3.47-4.62-5.48-8.1-4.48-2.81,.81-4.75,3.39-4.74,6.31,0,.42,.04,.83,.12,1.25,.04,.29,.29,.5,.58,.49Zm7.44-6.83l-.1,.05c-.86,.49-.97,.74-1,.83-.08,.35-.1,.7-.06,1.05v.5c-.08,.06-.16,.12-.25,.17l-.18,.12c-.08,.06-.15,.13-.21,.21-.03-.36-.08-.71-.16-1.07-.01-.06-.03-.12-.06-.17-.09-.14-.58-.83-1.2-.83-.2,0-.4-.04-.58-.13l-.12-.05c-.06-.11-.1-.23-.13-.36,.75-.38,1.58-.58,2.43-.58,.55,0,1.1,.07,1.62,.23h0Zm6.91,3.16c-.1-.45-.49-.78-1.16-.97-.26-.08-.54,.07-.62,.34-.08,.26,.07,.54,.34,.62,.41,.12,.47,.24,.47,.24,0,.41-2.12,2-7.16,3.17s-7.67,.69-7.82,.31c0,0,0-.17,.41-.5,.21-.17,.24-.48,.07-.68h0c-.17-.22-.48-.25-.69-.08h0c-.58,.51-.85,1.01-.74,1.49,.17,.72,1.04,1.11,2.68,1.16v.03c1.75,3.17,5.73,4.32,8.89,2.57,1.98-1.09,3.26-3.13,3.38-5.4,1.5-.8,2.15-1.55,1.97-2.29Zm-8.75,7.29l.47-.38,.82-.1c.16-.02,.31-.12,.38-.26l.18-.34,.18,.36-.12,.47c-.54,.17-1.1,.26-1.66,.26l-.25-.02Zm3.04-.78c0-.08-.02-.15-.05-.23l-.68-1.38c-.12-.24-.42-.34-.66-.22-.1,.05-.17,.12-.22,.22l-.52,.97-.71,.09c-.1,0-.19,.05-.26,.11l-1.08,.9s-.09,.09-.12,.14c-1.14-.33-2.13-1.03-2.83-1.99,1.67-.11,3.33-.36,4.96-.76,1.58-.36,3.13-.85,4.63-1.47-.27,1.51-1.16,2.83-2.47,3.63Z"/></g><g class="cls-5"><g><path class="cls-3" d="M128.14,28.38c0,.52,.5,.98,1.02,.98h2.74c.52,0,.88-.46,.88-.98v-3.58c0-.52-.36-.91-.88-.91h-2.74c-.52,0-1.02,.39-1.02,.91v.14h-6.32v-.14c0-.52-.36-.91-.88-.91h-2.74c-.52,0-1.02,.39-1.02,.91v3.58c0,.52,.5,.98,1.02,.98h2.74c.52,0,.88-.46,.88-.98v-.07h6.32v.07Zm.84-.11v-3.48c0-.06,.12-.07,.17-.07h2.74c.06,0,.04,.01,.04,.07v3.58c0,.06,.02,.14-.04,.14h-2.74c-.06,0-.17-.08-.17-.14v-.11Zm-8.05,.25h-2.74c-.06,0-.17-.08-.17-.14v-3.58c0-.06,.12-.07,.17-.07h2.74c.06,0,.04,.01,.04,.07v3.58c0,.06,.02,.14-.04,.14Zm1.93-1.05h-1.05v-1.69h1.05v1.69Zm3.79,0h-3.37v-1.69h3.37v1.69Zm.42,0v-1.69h1.05v1.69h-1.05Z"/><path class="cls-3" d="M137.37,31.47h-2.74c-.52,0-1.02,.39-1.02,.91v.14h-6.32v-.14c0-.52-.36-.91-.88-.91h-2.74c-.52,0-1.02,.39-1.02,.91v3.58c0,.52,.5,.98,1.02,.98h2.74c.52,0,.88-.46,.88-.98v-.07h6.32v.07c0,.52,.5,.98,1.02,.98h2.74c.52,0,.88-.46,.88-.98v-3.58c0-.52-.36-.91-.88-.91Zm-10.96,4.64h-2.74c-.06,0-.17-.08-.17-.14v-3.58c0-.06,.12-.07,.17-.07h2.74c.06,0,.04,.01,.04,.07v3.58c0,.06,.02,.14-.04,.14Zm1.93-1.05h-1.05v-1.69h1.05v1.69Zm3.79,0h-3.37v-1.69h3.37v1.69Zm1.48,0h-1.05v-1.69h1.05v1.69Zm3.76,1.05h-2.74c-.06,0-.17-.08-.17-.14v-3.58c0-.06,.12-.07,.17-.07h2.74c.06,0,.04,.01,.04,.07v3.58c0,.06,.02,.14-.04,.14Z"/></g></g><g class="cls-5"><g><path class="cls-2" d="M106.4,49.07h3.44c.99,0,1.78-.8,1.78-1.78v-3h-.64v3c0,.64-.51,1.15-1.15,1.15h-12.36c-.64,0-1.15-.51-1.15-1.15v-3h-.64v3c0,.99,.8,1.78,1.78,1.78h3.44c-3.12,1.12-5.39,4.14-5.39,7.65v.32h16.25v-.32c0-3.51-2.26-6.53-5.39-7.65Zm-10.23,7.33c.16-3.98,3.47-7.17,7.49-7.17s7.33,3.19,7.49,7.17h-14.98Z"/><path class="cls-2" d="M107.26,50.76l-3.15,2.9c-.13-.1-.29-.13-.45-.13-.54,0-.96,.41-.96,.96s.41,.96,.96,.96,.96-.41,.96-.96c0-.16-.03-.32-.13-.45l2.9-3.15-.13-.13Z"/></g></g><g class="cls-5"><path class="cls-3" d="M94.4,7.61h-8.04c-.28,0,0-.26,0-.26h0c.13-.12,.23-.23,.3-.31,1.28-1.69,.19-4.22,.02-4.58-.6-1.06-1.33-1.64-2.06-1.93-.06-.02-.11-.04-.18-.07-.33-.12-.71-.24-1.14-.33-1.86-.28-3.63,.59-3.64,.6-1.61,.92-5.72,3.34-7.55,5.09-.09,.08-.18,.17-.26,.26-.07,.07-.13,.14-.19,.21-.02,.02-.03,.04-.05,.05-.05,.07-.11,.13-.15,.2h.01c-.36,.49-.65,1.07-.83,1.78-.58,1.83,.04,5.92,3.49,7.22,.15,.05,.82,.25,1.82,.25h9.44c.33-.01,1.11-.12,1.86-.79h0l7.02-6.28,.2-.18c1-.89-.07-.93-.07-.93Zm-14.66-5.41s3.41-1.97,5.23,.33c.24,.33,.49,.73,.68,1.17,.02,.06,.55,1.95-.33,2.92,0,0-.02,.02-.02,.03-.02,.02-.04,.04-.06,.06-.08,.07-.16,.14-.25,.21l-3.79,2.83c.09-1.65-.59-3.3-.93-3.84-.88-1.27-2.11-1.69-2.87-1.83-.24-.04-.68-.05-.68-.05l3.01-1.83Zm12.26,7.15l-4.94,4.49c-.77,.7-1.58,.82-1.94,.83h-9.41c-.74,0-1.52-.27-1.59-.3-.23-.11-.47-.24-.72-.4-2.69-1.72-1.89-5.02-1.75-5.49v-.02l.02-.04h0c.58-1.83,1.94-3.17,4.51-3.25,.32,0,1.25,.08,2.08,.71,.2,.17,.41,.36,.61,.6,.39,.51,1.31,1.99,.89,3.71-.34,1.12-.82,1.61-1.49,2.06-.67,.45-2,.87-3.26,.1-.73-.5-1.29-1.36-1.18-2.49,.1-1.14,1.27-1.96,2.32-1.71,1.04,.24,1.66,1.81,.53,2.43-.53,.23-.85,.09-1.06-.2h0s-.3-.28-.68-.11c-.38,.17-.26,.71-.26,.72,.41,.61,1.21,1.06,2.4,.64,.27-.1,.5-.25,.68-.43h0l.04-.05s.08-.09,.11-.13c.41-.5,1.37-2.02-.16-3.74-.89-.71-3.65-1.48-4.81,1.6-.04,.1-.08,.21-.11,.32,0,.02-.01,.03-.02,.04h0c-.2,.7-.2,1.55,.22,2.5,.93,2.11,3.6,2.68,5.55,1.63,.35-.19,.67-.42,.96-.69h0l4.7-3.69s.33-.3,.83-.3h6.9c.67,0,.09,.57,0,.64Z"/></g></svg>