<?xml version="1.0" encoding="utf-8"?>
<!-- Generator: Adobe Illustrator 26.3.0, SVG Export Plug-In . SVG Version: 6.00 Build 0)  -->
<svg version="1.1" xmlns="http://www.w3.org/2000/svg" xmlns:xlink="http://www.w3.org/1999/xlink" x="0px" y="0px"
	 viewBox="0 0 29 31" style="enable-background:new 0 0 29 31;" xml:space="preserve">
<style type="text/css">
	.st0{fill:#CD9DF2;}
	.st1{fill:#5B70E0;stroke:#5B70E0;stroke-miterlimit:10;}
</style>
<g id="Layer_2">
	<polygon class="st0" points="14.8,1.8 13.1,7.7 7.9,13.2 7.9,29.3 24.6,29.3 27.2,16 25,13.9 19,13.1 18.3,10.3 18.2,4.1 	"/>
</g>
<g id="Layer_1">
	<g id="a">
	</g>
	<g id="c">
		<g>
			<path class="st1" d="M7.5,30.5h-6c-0.6,0-1-0.5-1-1v-16c0-0.6,0.4-1,1-1h6c0.6,0,1,0.4,1,1v16C8.5,30,8.1,30.5,7.5,30.5z
				 M2.5,28.5h4v-14h-4V28.5z"/>
			<path class="st1" d="M23.8,30.5H7.5c-0.6,0-1-0.5-1-1v-16c0-0.3,0.1-0.5,0.3-0.7L11.6,8l1.9-6.8c0.1-0.4,0.5-0.7,1-0.7
				c2.8,0,5,2.2,5,5v7h4c2.8,0,5,2.2,5,5c0,0,0,0.1,0,0.2L26.8,28C26.5,29.4,25.3,30.5,23.8,30.5L23.8,30.5z M8.5,28.5h15.3
				c0.5,0,0.9-0.4,1-0.8l1.7-10.2c0-1.6-1.4-2.9-3-2.9h-5c-0.5,0-1-0.4-1-1v-8c0-1.4-1-2.6-2.3-2.9l-1.8,6.2
				c-0.1,0.2-0.1,0.3-0.2,0.4l-4.7,4.7L8.5,28.5L8.5,28.5z"/>
		</g>
	</g>
</g>
</svg>
