<?xml version="1.0" encoding="UTF-8"?><svg xmlns="http://www.w3.org/2000/svg" viewBox="0 0 29 31"><defs><style>.d{fill:#5b70e0;stroke:#5b70e0;stroke-miterlimit:10;}</style></defs><g id="a"/><g id="b"><g id="c"><g><path class="d" d="M7.5,30.5H1.5c-.55,0-1-.45-1-1V13.5c0-.55,.45-1,1-1H7.5c.55,0,1,.45,1,1V29.5c0,.55-.45,1-1,1Zm-5-2H6.5V14.5H2.5v14Z"/><path class="d" d="M23.81,30.5H7.5c-.55,0-1-.45-1-1V13.5c0-.27,.11-.52,.29-.71l4.82-4.82,1.93-6.75c.12-.43,.52-.73,.96-.73,2.76,0,5,2.24,5,5v7h4c2.76,0,5,2.24,5,5,0,.05,0,.11-.01,.16l-1.72,10.33c-.24,1.45-1.49,2.51-2.96,2.51Zm-15.31-2h15.31c.49,0,.91-.35,.99-.84l1.71-10.24c-.04-1.62-1.37-2.92-3-2.92h-5c-.55,0-1-.45-1-1V5.5c0-1.4-.97-2.58-2.27-2.91l-1.77,6.19c-.05,.16-.13,.31-.25,.43l-4.71,4.71v14.59Z"/></g></g></g></svg>