<?xml version="1.0" encoding="UTF-8"?><svg id="a" xmlns="http://www.w3.org/2000/svg" viewBox="0 0 30 26.01"><defs><style>.c{fill:#5b70e0;}</style></defs><g id="b"><path class="c" d="M1,26c-.1,.01-.21,.01-.31,0-.43-.14-.71-.55-.69-1v-1C0,14.67,6.78,6.71,16,5.24V1C16,.45,16.45,0,17,0c.22,0,.43,.07,.6,.2l12,9c.44,.33,.53,.96,.2,1.4-.06,.08-.12,.14-.2,.2l-12,9c-.44,.33-1.07,.24-1.4-.2-.13-.17-.2-.38-.2-.6v-3.75c-4.84,.79-9.18,3.46-12.07,7.42l-2.12,2.92c-.19,.26-.49,.41-.81,.41ZM18,3v3.12c0,.51-.38,.94-.89,1-7.76,.85-13.94,6.87-15,14.6l.16-.21c3.46-4.75,8.78-7.81,14.63-8.4,.28-.03,.56,.07,.77,.26,.21,.19,.33,.46,.33,.74v2.89l9.33-7L18,3Z"/></g></svg>